<svg width="40" height="40" viewBox="0 0 40 40" fill="none" xmlns="http://www.w3.org/2000/svg">
<path d="M0 6C0 2.68629 2.68629 0 6 0H34C37.3137 0 40 2.68629 40 6V34C40 37.3137 37.3137 40 34 40H6C2.68629 40 0 37.3137 0 34V6Z" fill="#F3F3F3"/>
<mask id="path-2-outside-1_36_545" maskUnits="userSpaceOnUse" x="13.1748" y="2" width="13" height="36" fill="black">
<rect fill="white" x="13.1748" y="2" width="13" height="36"/>
<path d="M25.7511 22.9412L23.5434 21.1878V20.1604H24.0526C24.1117 20.1604 24.1683 20.1369 24.2101 20.0951C24.2519 20.0534 24.2753 19.9967 24.2753 19.9376V17.476C24.2753 17.4169 24.2519 17.3603 24.2101 17.3185C24.1683 17.2767 24.1117 17.2533 24.0526 17.2533H22.2294L21.4321 13.7152V11.7153C21.4321 11.6562 21.4086 11.5996 21.3669 11.5578C21.3251 11.516 21.2685 11.4926 21.2094 11.4926H18.7849C18.7258 11.4926 18.6691 11.516 18.6274 11.5578C18.5856 11.5996 18.5621 11.6562 18.5621 11.7153V13.7152L17.7752 17.2533H15.9223C15.8928 17.2529 15.8635 17.2584 15.8362 17.2694C15.8088 17.2804 15.7839 17.2967 15.7629 17.3175C15.7419 17.3382 15.7252 17.3629 15.7139 17.3901C15.7025 17.4173 15.6966 17.4465 15.6966 17.476V19.9391C15.6966 19.9982 15.7201 20.0548 15.7619 20.0966C15.8036 20.1384 15.8603 20.1618 15.9193 20.1618H16.439V21.1878L14.2594 22.9308C14.2333 22.9517 14.2121 22.9781 14.1974 23.0081C14.1828 23.0382 14.1751 23.0711 14.1748 23.1045V36.7773C14.1748 36.8364 14.1983 36.893 14.24 36.9348C14.2818 36.9766 14.3384 37 14.3975 37H25.619C25.6781 37 25.7347 36.9766 25.7765 36.9348C25.8182 36.893 25.8417 36.8364 25.8417 36.7773V23.1179C25.8414 23.0834 25.8331 23.0495 25.8174 23.0188C25.8016 22.9882 25.779 22.9616 25.7511 22.9412ZM19.0031 13.788C19.0046 13.7717 19.0046 13.7553 19.0031 13.739V11.938H20.9822V13.739C20.9808 13.7553 20.9808 13.7717 20.9822 13.788L21.7617 17.2533H18.2207L19.0031 13.788ZM16.1421 17.6987H23.8269V19.7164H16.1421V17.6987ZM16.8844 21.0705V20.1663H23.1039V21.0705H16.8844ZM25.3963 36.5501H14.6143V23.2129L16.7359 21.5189H23.2464L25.3933 23.2233L25.3963 36.5501Z"/>
<path d="M19.9727 10.3122C20.0317 10.3122 20.0884 10.2888 20.1302 10.247C20.1719 10.2052 20.1954 10.1486 20.1954 10.0895V3.22271C20.1954 3.16364 20.1719 3.107 20.1302 3.06523C20.0884 3.02346 20.0317 3 19.9727 3C19.9136 3 19.857 3.02346 19.8152 3.06523C19.7734 3.107 19.75 3.16364 19.75 3.22271V10.0895C19.75 10.1486 19.7734 10.2052 19.8152 10.247C19.857 10.2888 19.9136 10.3122 19.9727 10.3122Z"/>
<path d="M21.0788 10.4622C21.1106 10.4797 21.1464 10.4888 21.1827 10.4889C21.2233 10.489 21.2632 10.478 21.298 10.457C21.3328 10.4361 21.3612 10.406 21.3802 10.3701L24.2798 4.94052C24.2936 4.91468 24.3021 4.88639 24.3049 4.85727C24.3077 4.82814 24.3048 4.79874 24.2962 4.77075C24.2877 4.74277 24.2737 4.71674 24.2551 4.69415C24.2365 4.67156 24.2136 4.65287 24.1878 4.63912C24.1619 4.62537 24.1337 4.61685 24.1045 4.61404C24.0754 4.61122 24.046 4.61418 24.018 4.62272C23.99 4.63127 23.964 4.64525 23.9414 4.66386C23.9188 4.68246 23.9001 4.70534 23.8864 4.73117L20.9867 10.1608C20.973 10.1866 20.9644 10.2149 20.9616 10.244C20.9588 10.2732 20.9617 10.3026 20.9703 10.3306C20.9788 10.3586 20.9928 10.3846 21.0114 10.4072C21.03 10.4298 21.0529 10.4484 21.0788 10.4622Z"/>
<path d="M18.5667 10.3701C18.5856 10.406 18.614 10.4361 18.6489 10.457C18.6837 10.478 18.7235 10.489 18.7641 10.4889C18.8005 10.4888 18.8362 10.4797 18.8681 10.4622C18.9191 10.4345 18.9573 10.3879 18.9745 10.3324C18.9917 10.277 18.9865 10.217 18.9601 10.1652L16.0605 4.73117C16.0467 4.70534 16.028 4.68246 16.0054 4.66386C15.9829 4.64525 15.9568 4.63127 15.9288 4.62272C15.9009 4.61418 15.8715 4.61122 15.8423 4.61404C15.8132 4.61685 15.7849 4.62537 15.7591 4.63912C15.7332 4.65287 15.7104 4.67156 15.6918 4.69415C15.6732 4.71674 15.6592 4.74277 15.6506 4.77075C15.6421 4.79874 15.6391 4.82814 15.6419 4.85727C15.6448 4.88639 15.6533 4.91468 15.667 4.94052L18.5667 10.3701Z"/>
</mask>
<path d="M25.7511 22.9412L23.5434 21.1878V20.1604H24.0526C24.1117 20.1604 24.1683 20.1369 24.2101 20.0951C24.2519 20.0534 24.2753 19.9967 24.2753 19.9376V17.476C24.2753 17.4169 24.2519 17.3603 24.2101 17.3185C24.1683 17.2767 24.1117 17.2533 24.0526 17.2533H22.2294L21.4321 13.7152V11.7153C21.4321 11.6562 21.4086 11.5996 21.3669 11.5578C21.3251 11.516 21.2685 11.4926 21.2094 11.4926H18.7849C18.7258 11.4926 18.6691 11.516 18.6274 11.5578C18.5856 11.5996 18.5621 11.6562 18.5621 11.7153V13.7152L17.7752 17.2533H15.9223C15.8928 17.2529 15.8635 17.2584 15.8362 17.2694C15.8088 17.2804 15.7839 17.2967 15.7629 17.3175C15.7419 17.3382 15.7252 17.3629 15.7139 17.3901C15.7025 17.4173 15.6966 17.4465 15.6966 17.476V19.9391C15.6966 19.9982 15.7201 20.0548 15.7619 20.0966C15.8036 20.1384 15.8603 20.1618 15.9193 20.1618H16.439V21.1878L14.2594 22.9308C14.2333 22.9517 14.2121 22.9781 14.1974 23.0081C14.1828 23.0382 14.1751 23.0711 14.1748 23.1045V36.7773C14.1748 36.8364 14.1983 36.893 14.24 36.9348C14.2818 36.9766 14.3384 37 14.3975 37H25.619C25.6781 37 25.7347 36.9766 25.7765 36.9348C25.8182 36.893 25.8417 36.8364 25.8417 36.7773V23.1179C25.8414 23.0834 25.8331 23.0495 25.8174 23.0188C25.8016 22.9882 25.779 22.9616 25.7511 22.9412ZM19.0031 13.788C19.0046 13.7717 19.0046 13.7553 19.0031 13.739V11.938H20.9822V13.739C20.9808 13.7553 20.9808 13.7717 20.9822 13.788L21.7617 17.2533H18.2207L19.0031 13.788ZM16.1421 17.6987H23.8269V19.7164H16.1421V17.6987ZM16.8844 21.0705V20.1663H23.1039V21.0705H16.8844ZM25.3963 36.5501H14.6143V23.2129L16.7359 21.5189H23.2464L25.3933 23.2233L25.3963 36.5501Z" fill="#E30C5C"/>
<path d="M19.9727 10.3122C20.0317 10.3122 20.0884 10.2888 20.1302 10.247C20.1719 10.2052 20.1954 10.1486 20.1954 10.0895V3.22271C20.1954 3.16364 20.1719 3.107 20.1302 3.06523C20.0884 3.02346 20.0317 3 19.9727 3C19.9136 3 19.857 3.02346 19.8152 3.06523C19.7734 3.107 19.75 3.16364 19.75 3.22271V10.0895C19.75 10.1486 19.7734 10.2052 19.8152 10.247C19.857 10.2888 19.9136 10.3122 19.9727 10.3122Z" fill="#E30C5C"/>
<path d="M21.0788 10.4622C21.1106 10.4797 21.1464 10.4888 21.1827 10.4889C21.2233 10.489 21.2632 10.478 21.298 10.457C21.3328 10.4361 21.3612 10.406 21.3802 10.3701L24.2798 4.94052C24.2936 4.91468 24.3021 4.88639 24.3049 4.85727C24.3077 4.82814 24.3048 4.79874 24.2962 4.77075C24.2877 4.74277 24.2737 4.71674 24.2551 4.69415C24.2365 4.67156 24.2136 4.65287 24.1878 4.63912C24.1619 4.62537 24.1337 4.61685 24.1045 4.61404C24.0754 4.61122 24.046 4.61418 24.018 4.62272C23.99 4.63127 23.964 4.64525 23.9414 4.66386C23.9188 4.68246 23.9001 4.70534 23.8864 4.73117L20.9867 10.1608C20.973 10.1866 20.9644 10.2149 20.9616 10.244C20.9588 10.2732 20.9617 10.3026 20.9703 10.3306C20.9788 10.3586 20.9928 10.3846 21.0114 10.4072C21.03 10.4298 21.0529 10.4484 21.0788 10.4622Z" fill="#E30C5C"/>
<path d="M18.5667 10.3701C18.5856 10.406 18.614 10.4361 18.6489 10.457C18.6837 10.478 18.7235 10.489 18.7641 10.4889C18.8005 10.4888 18.8362 10.4797 18.8681 10.4622C18.9191 10.4345 18.9573 10.3879 18.9745 10.3324C18.9917 10.277 18.9865 10.217 18.9601 10.1652L16.0605 4.73117C16.0467 4.70534 16.028 4.68246 16.0054 4.66386C15.9829 4.64525 15.9568 4.63127 15.9288 4.62272C15.9009 4.61418 15.8715 4.61122 15.8423 4.61404C15.8132 4.61685 15.7849 4.62537 15.7591 4.63912C15.7332 4.65287 15.7104 4.67156 15.6918 4.69415C15.6732 4.71674 15.6592 4.74277 15.6506 4.77075C15.6421 4.79874 15.6391 4.82814 15.6419 4.85727C15.6448 4.88639 15.6533 4.91468 15.667 4.94052L18.5667 10.3701Z" fill="#E30C5C"/>
<path d="M25.7511 22.9412L23.5434 21.1878V20.1604H24.0526C24.1117 20.1604 24.1683 20.1369 24.2101 20.0951C24.2519 20.0534 24.2753 19.9967 24.2753 19.9376V17.476C24.2753 17.4169 24.2519 17.3603 24.2101 17.3185C24.1683 17.2767 24.1117 17.2533 24.0526 17.2533H22.2294L21.4321 13.7152V11.7153C21.4321 11.6562 21.4086 11.5996 21.3669 11.5578C21.3251 11.516 21.2685 11.4926 21.2094 11.4926H18.7849C18.7258 11.4926 18.6691 11.516 18.6274 11.5578C18.5856 11.5996 18.5621 11.6562 18.5621 11.7153V13.7152L17.7752 17.2533H15.9223C15.8928 17.2529 15.8635 17.2584 15.8362 17.2694C15.8088 17.2804 15.7839 17.2967 15.7629 17.3175C15.7419 17.3382 15.7252 17.3629 15.7139 17.3901C15.7025 17.4173 15.6966 17.4465 15.6966 17.476V19.9391C15.6966 19.9982 15.7201 20.0548 15.7619 20.0966C15.8036 20.1384 15.8603 20.1618 15.9193 20.1618H16.439V21.1878L14.2594 22.9308C14.2333 22.9517 14.2121 22.9781 14.1974 23.0081C14.1828 23.0382 14.1751 23.0711 14.1748 23.1045V36.7773C14.1748 36.8364 14.1983 36.893 14.24 36.9348C14.2818 36.9766 14.3384 37 14.3975 37H25.619C25.6781 37 25.7347 36.9766 25.7765 36.9348C25.8182 36.893 25.8417 36.8364 25.8417 36.7773V23.1179C25.8414 23.0834 25.8331 23.0495 25.8174 23.0188C25.8016 22.9882 25.779 22.9616 25.7511 22.9412ZM19.0031 13.788C19.0046 13.7717 19.0046 13.7553 19.0031 13.739V11.938H20.9822V13.739C20.9808 13.7553 20.9808 13.7717 20.9822 13.788L21.7617 17.2533H18.2207L19.0031 13.788ZM16.1421 17.6987H23.8269V19.7164H16.1421V17.6987ZM16.8844 21.0705V20.1663H23.1039V21.0705H16.8844ZM25.3963 36.5501H14.6143V23.2129L16.7359 21.5189H23.2464L25.3933 23.2233L25.3963 36.5501Z" stroke="#E30C5C" stroke-width="0.4" mask="url(#path-2-outside-1_36_545)"/>
<path d="M19.9727 10.3122C20.0317 10.3122 20.0884 10.2888 20.1302 10.247C20.1719 10.2052 20.1954 10.1486 20.1954 10.0895V3.22271C20.1954 3.16364 20.1719 3.107 20.1302 3.06523C20.0884 3.02346 20.0317 3 19.9727 3C19.9136 3 19.857 3.02346 19.8152 3.06523C19.7734 3.107 19.75 3.16364 19.75 3.22271V10.0895C19.75 10.1486 19.7734 10.2052 19.8152 10.247C19.857 10.2888 19.9136 10.3122 19.9727 10.3122Z" stroke="#E30C5C" stroke-width="0.4" mask="url(#path-2-outside-1_36_545)"/>
<path d="M21.0788 10.4622C21.1106 10.4797 21.1464 10.4888 21.1827 10.4889C21.2233 10.489 21.2632 10.478 21.298 10.457C21.3328 10.4361 21.3612 10.406 21.3802 10.3701L24.2798 4.94052C24.2936 4.91468 24.3021 4.88639 24.3049 4.85727C24.3077 4.82814 24.3048 4.79874 24.2962 4.77075C24.2877 4.74277 24.2737 4.71674 24.2551 4.69415C24.2365 4.67156 24.2136 4.65287 24.1878 4.63912C24.1619 4.62537 24.1337 4.61685 24.1045 4.61404C24.0754 4.61122 24.046 4.61418 24.018 4.62272C23.99 4.63127 23.964 4.64525 23.9414 4.66386C23.9188 4.68246 23.9001 4.70534 23.8864 4.73117L20.9867 10.1608C20.973 10.1866 20.9644 10.2149 20.9616 10.244C20.9588 10.2732 20.9617 10.3026 20.9703 10.3306C20.9788 10.3586 20.9928 10.3846 21.0114 10.4072C21.03 10.4298 21.0529 10.4484 21.0788 10.4622Z" stroke="#E30C5C" stroke-width="0.4" mask="url(#path-2-outside-1_36_545)"/>
<path d="M18.5667 10.3701C18.5856 10.406 18.614 10.4361 18.6489 10.457C18.6837 10.478 18.7235 10.489 18.7641 10.4889C18.8005 10.4888 18.8362 10.4797 18.8681 10.4622C18.9191 10.4345 18.9573 10.3879 18.9745 10.3324C18.9917 10.277 18.9865 10.217 18.9601 10.1652L16.0605 4.73117C16.0467 4.70534 16.028 4.68246 16.0054 4.66386C15.9829 4.64525 15.9568 4.63127 15.9288 4.62272C15.9009 4.61418 15.8715 4.61122 15.8423 4.61404C15.8132 4.61685 15.7849 4.62537 15.7591 4.63912C15.7332 4.65287 15.7104 4.67156 15.6918 4.69415C15.6732 4.71674 15.6592 4.74277 15.6506 4.77075C15.6421 4.79874 15.6391 4.82814 15.6419 4.85727C15.6448 4.88639 15.6533 4.91468 15.667 4.94052L18.5667 10.3701Z" stroke="#E30C5C" stroke-width="0.4" mask="url(#path-2-outside-1_36_545)"/>
</svg>
