<svg width="43" height="43" viewBox="0 0 43 43" fill="none" xmlns="http://www.w3.org/2000/svg">
<path d="M0 8.5C0 5.18629 2.68629 2.5 6 2.5H34C37.3137 2.5 40 5.18629 40 8.5V36.5C40 39.8137 37.3137 42.5 34 42.5H6C2.68629 42.5 0 39.8137 0 36.5V8.5Z" fill="#F3F3F3"/>
<path d="M38.7847 19.9106L36.5196 14.8123C36.4995 14.767 36.4624 14.7317 36.4165 14.714C36.3706 14.6964 36.3197 14.6979 36.2749 14.7182C36.2301 14.7385 36.1952 14.776 36.1777 14.8224C36.1603 14.8688 36.1618 14.9203 36.1819 14.9656L36.8277 16.4212L33.9315 17.7272L32.7286 15.0179C32.7076 14.9731 32.6706 14.9379 32.6251 14.9195C32.6027 14.9099 32.5786 14.905 32.5542 14.905C32.5299 14.905 32.5058 14.9099 32.4834 14.9195L31.4666 15.3881C31.4443 15.3981 31.4241 15.4126 31.4073 15.4307C31.3905 15.4487 31.3775 15.4699 31.3689 15.4931C31.3603 15.5163 31.3563 15.541 31.3572 15.5658C31.3581 15.5905 31.3639 15.6148 31.3742 15.6373L31.7267 16.4312L30.3883 17.0381C30.3705 17.0403 30.3531 17.0449 30.3365 17.0518C30.3203 17.0594 30.3053 17.0695 30.2921 17.0817L29.1324 17.6076C29.1144 17.6093 29.0969 17.6144 29.0807 17.6226C29.0642 17.6299 29.0488 17.6395 29.035 17.6512L27.8753 18.1784C27.8576 18.1806 27.8402 18.1852 27.8236 18.1921C27.8073 18.1995 27.7923 18.2096 27.7792 18.222L26.6183 18.7491C26.6005 18.7514 26.5831 18.756 26.5665 18.7629C26.5501 18.7702 26.5351 18.7803 26.5221 18.7928L19.1276 22.1464C18.368 22.493 17.7679 23.1198 17.45 23.8987C17.132 24.6777 17.1202 25.55 17.417 26.3375L13.3981 28.1819C12.6065 27.8683 11.7636 27.7085 10.9135 27.7108C9.28115 27.7057 7.69959 28.2844 6.44843 29.3446H1.3828C1.33377 29.3446 1.28675 29.3643 1.25208 29.3994C1.21741 29.4344 1.19793 29.482 1.19793 29.5316C1.19793 29.5811 1.21741 29.6287 1.25208 29.6637C1.28675 29.6988 1.33377 29.7185 1.3828 29.7185H6.52238C6.56851 29.7173 6.6125 29.6986 6.64562 29.6662C7.83835 28.6466 9.34924 28.0864 10.911 28.0847C11.5884 28.0841 12.2615 28.1927 12.9051 28.4062L10.847 29.3509C10.8241 29.3605 10.8033 29.3746 10.786 29.3925C10.7686 29.4104 10.755 29.4316 10.7459 29.455C10.7368 29.4783 10.7325 29.5032 10.7331 29.5283C10.7337 29.5533 10.7393 29.578 10.7496 29.6008C10.7598 29.6236 10.7745 29.6441 10.7927 29.6611C10.811 29.678 10.8324 29.6911 10.8558 29.6995C10.8791 29.708 10.9039 29.7116 10.9286 29.7101C10.9534 29.7086 10.9776 29.7022 10.9998 29.6911L13.3956 28.5919C14.0147 28.8458 14.5846 29.2082 15.0791 29.6624C15.0963 29.6801 15.1169 29.6942 15.1395 29.7038C15.1621 29.7134 15.1864 29.7184 15.211 29.7185H20.3444C20.3934 29.7185 20.4404 29.6988 20.4751 29.6637C20.5098 29.6287 20.5292 29.5811 20.5292 29.5316C20.5292 29.482 20.5098 29.4344 20.4751 29.3994C20.4404 29.3643 20.3934 29.3446 20.3444 29.3446H15.2911C14.8616 28.9552 14.3784 28.6311 13.8565 28.3825L17.5723 26.6777C17.6338 26.7984 17.703 26.9149 17.7793 27.0266C17.9819 27.3263 18.2317 27.5902 18.5188 27.808C18.573 27.8479 18.6297 27.8865 18.6852 27.9227L18.7147 27.9439C19.2407 28.2801 19.85 28.459 20.4722 28.4598C20.9311 28.4601 21.3848 28.3615 21.8032 28.1707L34.3998 22.4567L34.7486 23.2418C34.7631 23.2748 34.7868 23.3029 34.8167 23.3226C34.8467 23.3422 34.8817 23.3527 34.9174 23.3527C34.9433 23.3522 34.9688 23.3467 34.9926 23.3365L36.0143 22.8717C36.0365 22.862 36.0567 22.8478 36.0734 22.83C36.0901 22.8123 36.1031 22.7912 36.1116 22.7683C36.1301 22.7223 36.1301 22.6709 36.1116 22.6249L34.9125 19.9231L37.805 18.6108L38.4508 20.0652C38.4653 20.0982 38.489 20.1262 38.5189 20.1459C38.5489 20.1656 38.5839 20.1761 38.6196 20.1761C38.6459 20.1756 38.6718 20.1701 38.696 20.1599C38.7403 20.1386 38.7745 20.1004 38.7911 20.0537C38.8077 20.007 38.8054 19.9556 38.7847 19.9106ZM17.8336 26.3562C17.8126 26.31 17.7941 26.2639 17.7756 26.2178C17.7682 26.1991 17.7621 26.1792 17.7547 26.1605C17.7473 26.1418 17.735 26.1057 17.7263 26.0782C17.7177 26.0508 17.714 26.0371 17.7066 26.0159C17.6992 25.9948 17.6906 25.9636 17.6832 25.9374C17.6758 25.9113 17.6733 25.8951 17.6672 25.8739L17.6487 25.7966C17.6487 25.7742 17.6401 25.7517 17.6351 25.7293L17.6203 25.6545C17.6203 25.6321 17.6203 25.6084 17.6105 25.5847C17.6006 25.5611 17.6031 25.5361 17.6006 25.5125C17.5982 25.4888 17.6006 25.4651 17.5932 25.4414C17.5858 25.4177 17.5932 25.3941 17.5932 25.3704C17.5932 25.3467 17.5932 25.3218 17.5932 25.2981V24.9454L17.6006 24.8731C17.6006 24.8507 17.6006 24.827 17.6068 24.8046L17.6179 24.7323C17.6179 24.7099 17.624 24.6887 17.6277 24.6663C17.6314 24.6438 17.6364 24.6177 17.6413 24.594C17.6462 24.5703 17.6487 24.5504 17.6536 24.5279C17.6586 24.5055 17.6659 24.4806 17.6709 24.4569C17.6758 24.4332 17.682 24.4133 17.6869 24.3921C17.6918 24.3709 17.7005 24.3447 17.7079 24.3223L17.7263 24.2575L17.7498 24.189L17.7719 24.1254C17.7806 24.103 17.7904 24.0805 17.7991 24.0569C17.8077 24.0332 17.8151 24.017 17.8237 23.9958L17.8545 23.9285L17.8816 23.8687L17.9149 23.8039C17.926 23.7839 17.9358 23.764 17.9457 23.7441L17.9827 23.6805C17.9938 23.6618 18.0036 23.6419 18.016 23.6232L18.0542 23.5609L18.0911 23.5048L18.133 23.445L18.1725 23.3901L18.2168 23.3328L18.2587 23.2805L18.3068 23.2244L18.3512 23.1733C18.3672 23.1546 18.3845 23.1371 18.4017 23.1197L18.4485 23.0711L18.5015 23.02L18.5521 22.9726L18.6075 22.924L18.6593 22.8792L18.7172 22.8343L18.7727 22.7919L18.8331 22.7496L18.8922 22.7084C18.9119 22.6947 18.9329 22.6823 18.9538 22.6698C18.9748 22.6573 18.9945 22.6436 19.0155 22.6312L19.0783 22.595L19.1436 22.5589L19.2089 22.5265L19.2607 22.5016L33.3892 22.4916L21.6664 27.8305C21.3187 27.9891 20.9434 28.0768 20.5621 28.0885C20.1808 28.1002 19.801 28.0358 19.4444 27.8988C19.0878 27.7619 18.7614 27.5551 18.4839 27.2904C18.2064 27.0257 17.9833 26.7082 17.8274 26.3562H17.8336ZM34.2457 22.119L20.0729 22.1289L26.5542 19.1878L26.9855 20.1611C26.9951 20.1841 27.009 20.2049 27.0266 20.2223C27.0442 20.2397 27.065 20.2534 27.0879 20.2625C27.1108 20.2717 27.1352 20.2761 27.1598 20.2756C27.1844 20.2751 27.2087 20.2696 27.2312 20.2595C27.2536 20.2494 27.2739 20.2348 27.2907 20.2167C27.3076 20.1985 27.3207 20.1772 27.3292 20.1539C27.3378 20.1305 27.3417 20.1057 27.3407 20.0809C27.3396 20.056 27.3337 20.0316 27.3232 20.0091L26.8919 19.0358L27.8113 18.6183L28.2426 19.5916C28.2574 19.6243 28.2812 19.652 28.3112 19.6714C28.3411 19.6909 28.3759 19.7012 28.4114 19.7013C28.4374 19.7016 28.4631 19.696 28.4866 19.6851C28.5091 19.6751 28.5294 19.6607 28.5463 19.6427C28.5632 19.6247 28.5764 19.6035 28.5851 19.5803C28.5938 19.5571 28.5979 19.5324 28.5971 19.5076C28.5962 19.4828 28.5905 19.4584 28.5803 19.4358L28.1452 18.4687L29.0646 18.0513L29.4972 19.0246C29.5173 19.0698 29.5544 19.1052 29.6003 19.1228C29.6461 19.1405 29.6971 19.139 29.7418 19.1187C29.7866 19.0983 29.8216 19.0608 29.839 19.0145C29.8565 18.9681 29.855 18.9166 29.8349 18.8713L29.4023 17.898L30.3217 17.4805L30.7543 18.4538C30.7628 18.4781 30.7762 18.5004 30.7936 18.5193C30.8111 18.5381 30.8322 18.5531 30.8557 18.5633C30.8791 18.5735 30.9044 18.5787 30.93 18.5785C30.9555 18.5783 30.9807 18.5728 31.004 18.5622C31.0273 18.5517 31.0482 18.5364 31.0654 18.5173C31.0826 18.4982 31.0957 18.4757 31.1038 18.4512C31.1119 18.4267 31.115 18.4008 31.1127 18.3751C31.1105 18.3494 31.103 18.3244 31.0907 18.3018L30.6594 17.3284L31.8746 16.7764L34.247 22.1215L34.2457 22.119ZM35.016 22.919L31.7858 15.6523L32.4698 15.3419L35.6951 22.6062L35.016 22.919ZM37.6571 18.2706L34.7646 19.5829L34.0929 18.0712L36.9854 16.7589L37.6571 18.2706Z" fill="#E30C5C"/>
<path fill-rule="evenodd" clip-rule="evenodd" d="M38.6196 20.1761C38.5839 20.1761 38.5489 20.1656 38.5189 20.1459C38.489 20.1262 38.4653 20.0982 38.4508 20.0652L37.805 18.6108L34.9125 19.9231L36.1116 22.6249C36.1301 22.6709 36.1301 22.7223 36.1116 22.7683C36.1031 22.7912 36.0901 22.8123 36.0734 22.83C36.0567 22.8478 36.0365 22.862 36.0143 22.8717L34.9926 23.3365C34.9688 23.3467 34.9433 23.3522 34.9174 23.3527C34.8817 23.3527 34.8467 23.3422 34.8167 23.3226C34.7868 23.3029 34.7631 23.2748 34.7486 23.2418L34.3998 22.4567L21.8032 28.1707C21.3848 28.3615 20.9311 28.4601 20.4722 28.4598C19.85 28.459 19.2407 28.2801 18.7147 27.9439L18.6852 27.9227C18.6297 27.8865 18.573 27.8479 18.5188 27.808C18.2317 27.5902 17.9819 27.3263 17.7793 27.0266C17.703 26.9149 17.6338 26.7984 17.5723 26.6777L13.8565 28.3825C13.9341 28.4195 14.0107 28.4581 14.0865 28.4983C14.5208 28.7288 14.9254 29.013 15.2911 29.3446H20.3444C20.3934 29.3446 20.4404 29.3643 20.4751 29.3994C20.5098 29.4344 20.5292 29.482 20.5292 29.5316C20.5292 29.5811 20.5098 29.6287 20.4751 29.6637C20.4404 29.6988 20.3934 29.7185 20.3444 29.7185H15.211C15.1864 29.7184 15.1621 29.7134 15.1395 29.7038C15.1169 29.6942 15.0963 29.6801 15.0791 29.6624C14.5846 29.2082 14.0147 28.8458 13.3956 28.5919L10.9998 29.6911C10.9776 29.7022 10.9534 29.7086 10.9286 29.7101C10.9039 29.7116 10.8791 29.708 10.8558 29.6995C10.8324 29.6911 10.811 29.678 10.7927 29.6611C10.7745 29.6441 10.7598 29.6236 10.7496 29.6008C10.7393 29.578 10.7337 29.5533 10.7331 29.5283C10.7325 29.5032 10.7368 29.4783 10.7459 29.455C10.755 29.4316 10.7686 29.4104 10.786 29.3925C10.8033 29.3746 10.8241 29.3605 10.847 29.3509L12.9051 28.4062C12.8092 28.3744 12.7127 28.3449 12.6156 28.3178C12.0609 28.1627 11.4875 28.0842 10.911 28.0847C9.34924 28.0864 7.83835 28.6466 6.64562 29.6662C6.6125 29.6986 6.56851 29.7173 6.52238 29.7185H1.3828C1.33377 29.7185 1.28675 29.6988 1.25208 29.6637C1.21741 29.6287 1.19793 29.5811 1.19793 29.5316C1.19793 29.482 1.21741 29.4344 1.25208 29.3994C1.28675 29.3643 1.33377 29.3446 1.3828 29.3446H6.44843C7.69959 28.2844 9.28115 27.7057 10.9135 27.7108C11.7636 27.7085 12.6065 27.8683 13.3981 28.1819L17.417 26.3375C17.1202 25.55 17.132 24.6777 17.45 23.8987C17.7679 23.1198 18.368 22.493 19.1276 22.1464L26.5221 18.7928C26.5351 18.7803 26.5501 18.7702 26.5665 18.7629C26.5831 18.756 26.6005 18.7514 26.6183 18.7491L27.7792 18.222C27.7923 18.2096 27.8073 18.1995 27.8236 18.1921C27.8402 18.1852 27.8576 18.1806 27.8753 18.1784L29.035 17.6512C29.0488 17.6395 29.0642 17.6299 29.0807 17.6226C29.0969 17.6144 29.1144 17.6093 29.1324 17.6076L30.2921 17.0817C30.3053 17.0695 30.3203 17.0594 30.3365 17.0518C30.3531 17.0449 30.3705 17.0403 30.3883 17.0381L31.7267 16.4312L31.3742 15.6373C31.3639 15.6148 31.3581 15.5905 31.3572 15.5658C31.3563 15.541 31.3603 15.5163 31.3689 15.4931C31.3775 15.4699 31.3905 15.4487 31.4073 15.4307C31.4241 15.4126 31.4443 15.3981 31.4666 15.3881L32.4834 14.9195C32.5058 14.9099 32.5299 14.905 32.5542 14.905C32.5786 14.905 32.6027 14.9099 32.6251 14.9195C32.6706 14.9379 32.7076 14.9731 32.7286 15.0179L33.9315 17.7272L36.8277 16.4212L36.1819 14.9656C36.1618 14.9203 36.1603 14.8688 36.1777 14.8224C36.1952 14.776 36.2301 14.7385 36.2749 14.7182C36.3197 14.6979 36.3706 14.6964 36.4165 14.714C36.4624 14.7317 36.4995 14.767 36.5196 14.8123L38.7847 19.9106C38.8054 19.9556 38.8077 20.007 38.7911 20.0537C38.7745 20.1004 38.7403 20.1386 38.696 20.1599C38.6718 20.1701 38.6459 20.1756 38.6196 20.1761ZM38.9639 19.825C38.9641 19.8254 38.9644 19.8259 38.9646 19.8264C39.007 19.9195 39.0115 20.026 38.9771 20.1226C38.9426 20.2196 38.8717 20.2984 38.7805 20.3424L38.7762 20.3444L38.7719 20.3463C38.7246 20.3663 38.6741 20.377 38.6229 20.3779L38.6212 20.3779L38.6195 20.3779C38.5459 20.3779 38.4737 20.3563 38.4117 20.3155C38.3497 20.2748 38.3005 20.2166 38.2702 20.1478L37.7058 18.8767L35.1749 20.0249L36.2934 22.5451L36.2948 22.5486C36.3325 22.6426 36.3329 22.7478 36.2958 22.842C36.2779 22.8896 36.2508 22.933 36.2162 22.9698C36.1814 23.0067 36.1397 23.0362 36.0937 23.0565C36.0931 23.0568 36.0926 23.057 36.092 23.0573L35.071 23.5218L35.0687 23.5228C35.0221 23.5426 34.9722 23.5534 34.9217 23.5545L34.9195 23.5545H34.9173C34.8437 23.5545 34.7715 23.5329 34.7095 23.4922C34.6477 23.4516 34.5986 23.3936 34.5683 23.3251M34.5683 23.3251L34.3006 22.7225L21.884 28.3549C21.884 28.3549 21.884 28.3549 21.884 28.3549C21.4402 28.5573 20.9588 28.6619 20.472 28.6616C19.8128 28.6607 19.167 28.4712 18.6096 28.1148L18.6052 28.112L18.5749 28.0903C18.5183 28.0534 18.4597 28.0134 18.403 27.9717L18.4018 27.9708L18.4006 27.9699C18.0964 27.7391 17.8315 27.4593 17.6167 27.1417C17.5713 27.0753 17.5283 27.0072 17.4878 26.9377L14.3141 28.3938C14.6893 28.6054 15.0418 28.8564 15.3656 29.1428H20.3444C20.4454 29.1428 20.5425 29.1834 20.6145 29.2561C20.6864 29.3289 20.7271 29.4279 20.7271 29.5316C20.7271 29.6352 20.6864 29.7343 20.6145 29.807C20.5425 29.8797 20.4454 29.9203 20.3444 29.9203H15.2102C15.1598 29.9201 15.1099 29.9098 15.0633 29.89C15.0187 29.8711 14.978 29.8437 14.9433 29.8093C14.4875 29.3913 13.9655 29.0541 13.3991 28.8116L11.0834 29.874C11.0384 29.8959 10.9897 29.9086 10.94 29.9116C10.889 29.9146 10.8379 29.9072 10.7897 29.8898C10.7415 29.8724 10.6972 29.8453 10.6594 29.8102C10.6215 29.775 10.591 29.7324 10.5696 29.6848C10.5483 29.6373 10.5365 29.5858 10.5352 29.5334C10.5339 29.4811 10.543 29.4291 10.5619 29.3805C10.5809 29.3318 10.6093 29.2877 10.6453 29.2506C10.6804 29.2144 10.7222 29.1856 10.7681 29.1658L12.3253 28.451C11.8624 28.3414 11.3879 28.2861 10.9112 28.2865C9.39752 28.2881 7.93333 28.8304 6.77697 29.8172C6.70877 29.8813 6.61997 29.9179 6.52729 29.9202L6.52483 29.9203H1.38278C1.28178 29.9203 1.1846 29.8797 1.11269 29.807C1.04073 29.7343 1 29.6352 1 29.5316C1 29.4279 1.04073 29.3289 1.11269 29.2561C1.1846 29.1834 1.28179 29.1428 1.38278 29.1428H6.37748C7.65542 28.0821 9.25922 27.504 10.9136 27.509C11.7603 27.5068 12.6001 27.6609 13.3918 27.9635L17.1698 26.2296C16.9207 25.4424 16.9538 24.589 17.2672 23.8212C17.6047 22.9944 18.2414 22.3296 19.0467 21.9622L26.4172 18.6195C26.4389 18.603 26.4623 18.5891 26.4872 18.578L26.4895 18.5769L26.4918 18.576C26.514 18.5668 26.5368 18.5596 26.5602 18.5546L27.6747 18.0485C27.6958 18.0326 27.7186 18.0189 27.7426 18.008L27.7457 18.0065L27.7489 18.0052C27.771 17.996 27.7939 17.9889 27.8172 17.9839L28.9339 17.4762C28.9539 17.462 28.9752 17.4496 28.9974 17.4394C29.0223 17.4274 29.0484 17.4184 29.0753 17.4127L30.1881 16.908C30.2086 16.8926 30.2306 16.8793 30.2538 16.8684L30.2578 16.8666L30.2618 16.8649C30.284 16.8557 30.3069 16.8485 30.3302 16.8435L31.4642 16.3293L31.1948 15.7227C31.1946 15.7222 31.1945 15.7218 31.1943 15.7214C31.1732 15.6749 31.1613 15.6246 31.1594 15.5734C31.1575 15.5217 31.1658 15.4701 31.1837 15.4218C31.2016 15.3734 31.2289 15.3292 31.2637 15.2918C31.2983 15.2546 31.3398 15.2247 31.3857 15.2039C31.3854 15.204 31.386 15.2038 31.3857 15.2039L32.4044 14.7344L32.407 14.7333C32.4536 14.7134 32.5037 14.7032 32.5542 14.7032C32.6042 14.7032 32.6536 14.7132 32.6998 14.7326C32.7906 14.7699 32.8648 14.8405 32.9072 14.9309L32.9081 14.9328L34.0308 17.4618L36.5651 16.3189L36.0015 15.0488C36.0015 15.0488 36.0016 15.0488 36.0015 15.0488C35.9597 14.9544 35.9565 14.8469 35.9929 14.7502C36.0293 14.6534 36.102 14.5758 36.1944 14.5339C36.2868 14.4919 36.3918 14.4888 36.4864 14.5252C36.581 14.5616 36.658 14.6348 36.6998 14.7291L38.9639 19.825M31.8746 16.7764L30.6594 17.3284L31.0907 18.3018C31.103 18.3244 31.1105 18.3494 31.1127 18.3751C31.115 18.4008 31.1119 18.4267 31.1038 18.4512C31.0957 18.4757 31.0826 18.4982 31.0654 18.5173C31.0482 18.5364 31.0273 18.5517 31.004 18.5622C30.9807 18.5728 30.9555 18.5783 30.93 18.5785C30.9044 18.5787 30.8791 18.5735 30.8557 18.5633C30.8322 18.5531 30.8111 18.5381 30.7936 18.5193C30.7762 18.5004 30.7628 18.4781 30.7543 18.4538L30.3217 17.4805L29.4023 17.898L29.8349 18.8713C29.855 18.9166 29.8565 18.9681 29.839 19.0145C29.8216 19.0608 29.7866 19.0983 29.7418 19.1187C29.6971 19.139 29.6461 19.1405 29.6003 19.1228C29.5544 19.1052 29.5173 19.0698 29.4972 19.0246L29.0646 18.0513L28.1452 18.4687L28.5803 19.4358C28.5905 19.4584 28.5962 19.4828 28.5971 19.5076C28.5979 19.5324 28.5938 19.5571 28.5851 19.5803C28.5764 19.6035 28.5632 19.6247 28.5463 19.6427C28.5294 19.6607 28.5091 19.6751 28.4866 19.6851C28.4631 19.696 28.4374 19.7016 28.4114 19.7013C28.3759 19.7012 28.3411 19.6909 28.3112 19.6714C28.2812 19.652 28.2574 19.6243 28.2426 19.5916L27.8113 18.6183L26.8919 19.0358L27.3232 20.0091C27.3337 20.0316 27.3396 20.056 27.3407 20.0809C27.3417 20.1057 27.3378 20.1305 27.3292 20.1539C27.3207 20.1772 27.3076 20.1985 27.2907 20.2167C27.2739 20.2348 27.2536 20.2494 27.2312 20.2595C27.2087 20.2696 27.1844 20.2751 27.1598 20.2756C27.1352 20.2761 27.1108 20.2717 27.0879 20.2625C27.065 20.2534 27.0442 20.2397 27.0266 20.2223C27.009 20.2049 26.9951 20.1841 26.9855 20.1611L26.5542 19.1878L20.0729 22.1289L34.2457 22.119L31.8746 16.7764ZM33.9391 21.9174L31.7754 17.0423L30.9217 17.4302L31.2684 18.2126C31.2913 18.2576 31.3054 18.3066 31.3099 18.3572C31.3146 18.4109 31.3082 18.465 31.2912 18.5161C31.2742 18.5671 31.247 18.6139 31.2113 18.6536C31.1757 18.6933 31.1324 18.7249 31.0842 18.7467C31.036 18.7685 30.984 18.7799 30.9314 18.7803C30.8787 18.7807 30.8266 18.77 30.7781 18.749C30.7296 18.7279 30.6859 18.6969 30.6497 18.6578C30.6157 18.6211 30.589 18.5779 30.5712 18.5308L30.2226 17.7464L29.6648 17.9997L30.0152 18.788C30.0571 18.8824 30.0602 18.99 30.0238 19.0867C29.9874 19.1834 29.9148 19.261 29.8223 19.303C29.7299 19.3449 29.625 19.348 29.5304 19.3117C29.4358 19.2753 29.3588 19.2022 29.3169 19.1079C29.3169 19.1078 29.3169 19.1079 29.3169 19.1079L28.9655 18.3172L28.4085 18.5701L28.7598 19.351C28.7598 19.3508 28.7599 19.3511 28.7598 19.351C28.781 19.3978 28.7931 19.449 28.7949 19.5007C28.7966 19.5525 28.7881 19.6041 28.7699 19.6525C28.7517 19.7009 28.7243 19.745 28.6892 19.7823C28.6545 19.8192 28.613 19.8488 28.5673 19.8694C28.5179 19.8921 28.4643 19.9035 28.4102 19.9031C28.3375 19.9028 28.2662 19.8815 28.2048 19.8416C28.1431 19.8015 28.0938 19.7442 28.063 19.6764L28.0622 19.6747L27.7119 18.8843L27.1542 19.1376L27.503 19.9246C27.5242 19.971 27.5363 20.0212 27.5384 20.0723C27.5405 20.1242 27.5324 20.1761 27.5145 20.2247C27.4967 20.2733 27.4694 20.3178 27.4344 20.3554C27.3995 20.3931 27.3575 20.4232 27.3111 20.4441C27.2647 20.465 27.2146 20.4763 27.1639 20.4774C27.1132 20.4784 27.0628 20.4693 27.0155 20.4503C26.9683 20.4314 26.9252 20.4031 26.8887 20.367C26.8529 20.3316 26.8242 20.2893 26.8044 20.2425L26.4548 19.4538L21.0057 21.9265L33.9391 21.9174ZM19.2607 22.5016L19.2089 22.5265L19.1436 22.5589L19.0783 22.595L19.0155 22.6312C19.005 22.6374 18.9948 22.6439 18.9846 22.6505C18.9745 22.657 18.9643 22.6636 18.9538 22.6698C18.9329 22.6823 18.9119 22.6947 18.8922 22.7084L18.8331 22.7496L18.7727 22.7919L18.7172 22.8343L18.6593 22.8792L18.6075 22.924L18.5521 22.9726L18.5015 23.02L18.4485 23.0711L18.4017 23.1197C18.3845 23.1371 18.3672 23.1546 18.3512 23.1733L18.3068 23.2244L18.2587 23.2805L18.2168 23.3328L18.1725 23.3901L18.133 23.445L18.0911 23.5048L18.0542 23.5609L18.016 23.6232C18.0083 23.6348 18.0016 23.6469 17.9949 23.6589C17.9909 23.6662 17.9869 23.6734 17.9827 23.6805L17.9457 23.7441C17.9358 23.764 17.926 23.7839 17.9149 23.8039L17.8816 23.8687L17.8545 23.9285L17.8237 23.9958C17.821 24.0024 17.8184 24.0085 17.8159 24.0145C17.8103 24.0278 17.805 24.0405 17.7991 24.0569C17.794 24.0707 17.7885 24.0842 17.7831 24.0974C17.7793 24.1068 17.7755 24.1161 17.7719 24.1254L17.7498 24.189L17.7263 24.2575L17.7079 24.3223C17.7005 24.3447 17.6918 24.3709 17.6869 24.3921C17.6849 24.4008 17.6826 24.4094 17.6803 24.4181C17.6771 24.4304 17.6738 24.443 17.6709 24.4569C17.6682 24.4697 17.6648 24.4829 17.6615 24.4958C17.6587 24.5068 17.6559 24.5176 17.6536 24.5279C17.651 24.5398 17.6491 24.5509 17.6471 24.5623C17.6454 24.5725 17.6436 24.5828 17.6413 24.594C17.6364 24.6177 17.6314 24.6438 17.6277 24.6663C17.6266 24.6729 17.6253 24.6795 17.624 24.686C17.6209 24.7014 17.6179 24.7166 17.6179 24.7323L17.6068 24.8046C17.6006 24.827 17.6006 24.8507 17.6006 24.8731L17.5932 24.9454V25.3704C17.5932 25.3783 17.5924 25.3862 17.5916 25.3941C17.5899 25.4099 17.5883 25.4256 17.5932 25.4414C17.5982 25.4572 17.5987 25.473 17.5992 25.4888C17.5995 25.4967 17.5998 25.5046 17.6006 25.5125C17.6013 25.5193 17.6016 25.5262 17.6019 25.5331C17.6027 25.5503 17.6035 25.5679 17.6105 25.5847C17.6203 25.6084 17.6203 25.6321 17.6203 25.6545L17.6351 25.7293C17.6366 25.736 17.6384 25.7428 17.6402 25.7495C17.6445 25.7652 17.6487 25.7809 17.6487 25.7966L17.6672 25.8739C17.6702 25.8843 17.6723 25.8935 17.6746 25.9033C17.677 25.9134 17.6795 25.9241 17.6832 25.9374L17.6854 25.9453C17.6923 25.9696 17.7 25.9968 17.7066 26.0159C17.7115 26.0298 17.7147 26.0405 17.7188 26.0539C17.721 26.061 17.7234 26.0688 17.7263 26.0782C17.7341 26.1029 17.7448 26.1346 17.7523 26.1544C17.7531 26.1566 17.7539 26.1586 17.7547 26.1605C17.7584 26.1698 17.7618 26.1795 17.7651 26.1892C17.7685 26.1988 17.7719 26.2085 17.7756 26.2178C17.7923 26.2594 17.8089 26.3009 17.8274 26.3424C17.8291 26.3462 17.8308 26.35 17.8325 26.3538C17.8328 26.3546 17.8332 26.3554 17.8336 26.3562H17.8274C17.8278 26.357 17.8281 26.3578 17.8284 26.3586C17.8301 26.3624 17.8318 26.3662 17.8335 26.37C17.8622 26.4338 17.8931 26.4965 17.9261 26.558C18.0724 26.83 18.2605 27.0773 18.4839 27.2904C18.7614 27.5551 19.0878 27.7619 19.4444 27.8988C19.801 28.0358 20.1808 28.1002 20.5621 28.0885C20.9434 28.0768 21.3187 27.9891 21.6664 27.8305L33.3892 22.4916L19.2607 22.5016ZM32.4594 22.694L19.3051 22.7033L19.2955 22.7079L19.2934 22.709L19.2341 22.7384L19.1755 22.7708L19.1727 22.7724L19.1152 22.8055C19.1148 22.8057 19.1144 22.8059 19.114 22.8061C19.1074 22.8101 19.1003 22.8146 19.0903 22.8211L19.0892 22.8218C19.0797 22.8279 19.067 22.8361 19.0535 22.8441C19.0315 22.8572 19.0167 22.8661 19.0037 22.8752L18.9452 22.9158L18.8881 22.9559L18.8369 22.995L18.8359 22.9958L18.7833 23.0365L18.7365 23.0771L18.7357 23.0778L18.6836 23.1235L18.6365 23.1676L18.5872 23.2151L18.542 23.262L18.5411 23.263C18.523 23.2813 18.5108 23.2937 18.5002 23.3061L18.4993 23.307L18.4558 23.3572L18.455 23.3581L18.4099 23.4107L18.3712 23.4591L18.33 23.5123L18.2941 23.5622L18.2926 23.5643L18.2538 23.6198L18.2202 23.6706L18.182 23.733L18.1802 23.7357C18.175 23.7436 18.1737 23.7461 18.1713 23.7507C18.1686 23.7559 18.1646 23.7636 18.1524 23.7842C18.1523 23.7845 18.1526 23.784 18.1524 23.7842L18.1194 23.8411C18.1108 23.8584 18.1005 23.879 18.0888 23.9003L18.0592 23.9579L18.0338 24.0138L18.0048 24.0773C18.0011 24.0864 17.9983 24.093 17.996 24.0985C17.9917 24.1087 17.9889 24.1153 17.9846 24.1271C17.979 24.1425 17.9673 24.1713 17.9608 24.1876C17.9592 24.1915 17.9579 24.1946 17.9571 24.1967L17.9366 24.2553L17.9362 24.2566L17.9149 24.3189L17.8967 24.3827L17.8954 24.3866C17.8872 24.4117 17.8819 24.4283 17.8795 24.4387C17.8767 24.4506 17.8735 24.4626 17.8713 24.4712L17.8701 24.4756C17.8675 24.4854 17.8658 24.4922 17.8645 24.4988C17.8609 24.5159 17.8567 24.5323 17.8537 24.544C17.8502 24.5574 17.8482 24.5652 17.8467 24.5721C17.8454 24.5781 17.8443 24.5845 17.8424 24.5953C17.8407 24.6053 17.8382 24.6199 17.8349 24.6359C17.8305 24.6571 17.8261 24.6804 17.8229 24.6997C17.8214 24.709 17.8197 24.7173 17.8186 24.7232L17.8177 24.7273C17.8169 24.7314 17.8164 24.7338 17.8159 24.7364C17.8159 24.7368 17.816 24.7362 17.8159 24.7364L17.8158 24.748L17.8005 24.8476L17.7988 24.8539C17.7987 24.8552 17.7986 24.857 17.7986 24.8596C17.7985 24.8633 17.7985 24.8673 17.7985 24.8731V24.8836L17.7911 24.9559V25.3704C17.7911 25.3786 17.7908 25.3861 17.7904 25.3923C17.79 25.3985 17.7895 25.404 17.7891 25.4081C17.7943 25.4324 17.7957 25.4531 17.7964 25.4662C17.7968 25.4737 17.7971 25.4845 17.7972 25.4867C17.7974 25.4912 17.7975 25.4919 17.7974 25.4912C17.7981 25.4977 17.7985 25.5036 17.7989 25.5085C17.7992 25.5134 17.7994 25.5179 17.7995 25.5212L17.7997 25.5244C17.8146 25.5682 17.8176 25.609 17.8182 25.634L17.8285 25.6864C17.8288 25.6876 17.8293 25.6895 17.8302 25.693L17.8309 25.6953C17.8321 25.6997 17.834 25.7068 17.8357 25.7136C17.8385 25.7251 17.8427 25.7433 17.845 25.7656L17.8584 25.8218C17.8625 25.8364 17.8654 25.849 17.8673 25.8574C17.8696 25.8671 17.8711 25.8736 17.8734 25.8816C17.8818 25.9113 17.8883 25.9345 17.8931 25.9483C17.8992 25.966 17.9045 25.983 17.9092 25.9986C17.9111 26.0048 17.913 26.0109 17.9148 26.0166C17.9228 26.0423 17.9335 26.073 17.9382 26.085C17.9434 26.0982 17.9479 26.1111 17.9511 26.12L17.9515 26.1212C17.9551 26.1314 17.9571 26.1372 17.9591 26.1421C17.9777 26.1886 17.9945 26.2303 18.0131 26.2713L18.0971 26.4561C18.2336 26.7113 18.4097 26.9433 18.6191 27.143C18.8776 27.3896 19.1817 27.5823 19.5141 27.71C19.8465 27.8376 20.2006 27.8977 20.5561 27.8868C20.9116 27.8759 21.2614 27.7941 21.5855 27.6463L32.4594 22.694ZM17.7877 25.4219C17.7877 25.4219 17.7877 25.4219 17.7877 25.4219V25.4219ZM35.1146 22.6522L32.0483 15.754L32.3706 15.6078L35.4331 22.5055L35.1146 22.6522ZM32.4698 15.3419L31.7858 15.6523L35.016 22.919L35.6951 22.6062L32.4698 15.3419ZM37.6571 18.2706L36.9854 16.7589L34.0929 18.0712L34.7646 19.5829L37.6571 18.2706ZM37.3946 18.1688L36.8862 17.0248L34.3554 18.173L34.8637 19.317L37.3946 18.1688Z" fill="#E30C5C"/>
</svg>
