<svg width="40" height="40" viewBox="0 0 40 40" fill="none" xmlns="http://www.w3.org/2000/svg">
<path d="M0 6C0 2.68629 2.68629 0 6 0H34C37.3137 0 40 2.68629 40 6V34C40 37.3137 37.3137 40 34 40H6C2.68629 40 0 37.3137 0 34V6Z" fill="#F3F3F3"/>
<path d="M20.7588 20.1201C22.0687 19.2593 23.6411 18.8728 25.208 19.0254C26.7751 19.1781 28.241 19.8608 29.3545 20.958H29.3535C29.9877 21.5795 30.4909 22.3185 30.833 23.1328C31.1751 23.9472 31.3496 24.8208 31.3467 25.7021L31.3398 25.9922C31.2753 27.4402 30.7363 28.8315 29.7988 29.9551C28.7987 31.1536 27.407 31.9737 25.8623 32.2754C24.3177 32.577 22.7147 32.342 21.3262 31.6104C19.9376 30.8786 18.8494 29.6953 18.2471 28.2617C17.6448 26.828 17.5653 25.2326 18.0234 23.748C18.4816 22.2635 19.4487 20.9812 20.7588 20.1201ZM25.7422 19.7588C24.3448 19.485 22.8941 19.6965 21.6377 20.3574C20.3813 21.0185 19.3967 22.0878 18.8516 23.3828C18.3065 24.678 18.2343 26.1194 18.6475 27.4609C19.0606 28.8025 19.9338 29.9618 21.1182 30.7412C22.3025 31.5205 23.7246 31.8717 25.1426 31.7344C26.5606 31.597 27.8863 30.9798 28.8936 29.9883L29.1045 29.7705C30.1264 28.6584 30.6963 27.2094 30.6973 25.7031C30.6974 24.3014 30.2031 22.9424 29.2998 21.8584C28.3965 20.7746 27.1393 20.0327 25.7422 19.7588ZM27.9668 21.9941C28.0095 21.9948 28.0516 22.0037 28.0908 22.0205C28.1301 22.0373 28.1664 22.0612 28.1963 22.0918H28.1953C28.2556 22.1523 28.2899 22.2339 28.29 22.3193C28.29 22.405 28.2558 22.4873 28.1953 22.5479L28.1943 22.5488L21.3496 29.2822C21.3194 29.3121 21.2835 29.3355 21.2441 29.3516C21.2242 29.3597 21.2036 29.366 21.1826 29.3701L21.1191 29.376C21.0337 29.3752 20.951 29.3417 20.8896 29.2822L20.8887 29.2812C20.8281 29.2207 20.7939 29.1384 20.7939 29.0527C20.794 28.9671 20.8281 28.8847 20.8887 28.8242H20.8896L27.7344 22.0859L27.7842 22.0459C27.8021 22.0343 27.8218 22.0245 27.8418 22.0166C27.8815 22.001 27.9241 21.9935 27.9668 21.9941ZM19.8789 7.45898C21.8825 6.69244 23.6315 6.6744 24.6279 7.65625C25.6261 8.63836 25.6076 10.3627 24.8291 12.3359C24.047 14.3181 22.4842 16.5932 20.3174 18.7275C18.7194 20.3002 17.0434 21.5497 15.4678 22.4062C13.894 23.2617 12.4121 23.7295 11.2021 23.7295C10.3373 23.7295 9.6008 23.4896 9.07715 22.9727C8.09926 22.0098 8.07439 20.2961 8.92773 18.1963C9.76011 16.1482 11.3455 13.9131 13.3877 11.9023C15.5555 9.76792 17.8662 8.22912 19.8789 7.45898ZM22.498 7.53809C21.4093 7.53811 20.0145 7.98556 18.5039 8.81641C16.9952 9.64627 15.3787 10.854 13.8496 12.3604C11.8621 14.3159 10.3301 16.4753 9.5332 18.4365C9.14739 19.3873 8.95945 20.2252 8.96387 20.917C8.96833 21.6077 9.16352 22.1467 9.53711 22.5146H9.53809C9.93678 22.9088 10.5179 23.0997 11.2422 23.0938C11.9671 23.0878 12.827 22.8847 13.7666 22.5029C15.6455 21.7396 17.8264 20.2674 19.8555 18.2695C21.8843 16.2718 23.3768 14.1251 24.1514 12.2754C24.5387 11.3503 24.7444 10.5042 24.751 9.79102C24.7575 9.07841 24.5655 8.5066 24.167 8.11426C23.7746 7.72795 23.2056 7.53809 22.498 7.53809ZM14.7178 12.8525C14.8033 12.8526 14.8859 12.8858 14.9473 12.9453V12.9463L19.165 17.0967L19.2061 17.1455C19.218 17.1629 19.228 17.1816 19.2363 17.2012C19.253 17.2405 19.2617 17.2834 19.2617 17.3262C19.2617 17.3688 19.253 17.4109 19.2363 17.4502C19.2197 17.4894 19.1955 17.5249 19.165 17.5547C19.1037 17.615 19.0206 17.6484 18.9346 17.6484C18.8487 17.6484 18.7663 17.6148 18.7051 17.5547H18.7041L14.4873 13.4033C14.457 13.3737 14.4326 13.3387 14.416 13.2998C14.3993 13.2604 14.3906 13.2176 14.3906 13.1748C14.3906 13.1322 14.3994 13.0901 14.416 13.0508C14.4327 13.0114 14.4567 12.9751 14.4873 12.9453H14.4883C14.5497 12.8859 14.6323 12.8525 14.7178 12.8525Z" fill="#E30C5C" stroke="#E30C5C" stroke-width="0.2"/>
</svg>
