<svg width="40" height="40" viewBox="0 0 40 40" fill="none" xmlns="http://www.w3.org/2000/svg">
<path d="M0 6C0 2.68629 2.68629 0 6 0H34C37.3137 0 40 2.68629 40 6V34C40 37.3137 37.3137 40 34 40H6C2.68629 40 0 37.3137 0 34V6Z" fill="#F3F3F3"/>
<mask id="path-2-outside-1_36_550" maskUnits="userSpaceOnUse" x="0" y="7" width="40" height="25" fill="black">
<rect fill="white" y="7" width="40" height="25"/>
<path d="M38.9431 12.126L37.6287 10.83L34.822 8.05609C34.8039 8.03825 34.7824 8.02411 34.7587 8.01449C34.735 8.00486 34.7096 7.99994 34.684 8C34.6584 8.00006 34.6331 8.0051 34.6095 8.01484C34.5858 8.02457 34.5644 8.03881 34.5463 8.05674C34.5283 8.07466 34.5139 8.09593 34.5042 8.11932C34.4945 8.14271 34.4895 8.16777 34.4895 8.19307C34.4896 8.21836 34.4947 8.24339 34.5046 8.26674C34.5144 8.29009 34.5288 8.31129 34.547 8.32913L35.7213 9.4828L33.3636 11.8209L31.1733 9.66098C31.1553 9.64299 31.1339 9.62872 31.1103 9.61897C31.0867 9.60923 31.0614 9.60421 31.0358 9.60421C31.0102 9.60421 30.9849 9.60923 30.9613 9.61897C30.9376 9.62872 30.9162 9.64299 30.8982 9.66098L30.0639 10.4852C30.0278 10.5214 30.0075 10.5702 30.0075 10.6211C30.0075 10.6719 30.0278 10.7207 30.0639 10.757L30.7036 11.3889L29.6007 12.4746C29.5874 12.4816 29.5748 12.4897 29.5631 12.499C29.5532 12.5107 29.5449 12.5236 29.5384 12.5375L28.5756 13.4873C28.5621 13.4944 28.5495 13.503 28.538 13.5129C28.5275 13.5239 28.5187 13.5365 28.512 13.5501L27.5544 14.4974C27.5407 14.5043 27.5277 14.5125 27.5155 14.5218C27.5061 14.5333 27.4979 14.5458 27.4909 14.5589L26.5281 15.5101C26.5145 15.517 26.5018 15.5256 26.4904 15.5357C26.4803 15.5468 26.472 15.5593 26.4658 15.5729L20.427 21.5476C19.8078 22.1624 19.4496 22.9876 19.4254 23.8545C19.4013 24.7215 19.7131 25.5648 20.2972 26.2123L18.7246 27.7659C17.8424 27.3994 16.8945 27.2119 15.9374 27.2147C14.2136 27.2093 12.5433 27.8064 11.2221 28.9003H1.19463C1.14301 28.9003 1.09351 28.9206 1.05701 28.9566C1.02051 28.9927 1 29.0416 1 29.0926C1 29.1436 1.02051 29.1925 1.05701 29.2286C1.09351 29.2646 1.14301 29.2849 1.19463 29.2849H11.2961C11.3447 29.2839 11.3911 29.2647 11.4258 29.231C12.6859 28.1795 14.2815 27.6015 15.931 27.5992C16.7812 27.5983 17.6239 27.7567 18.4145 28.0658L17.3894 29.0772C16.9103 28.9744 16.4213 28.9233 15.931 28.9247C13.3112 28.9247 11.9189 30.2745 11.614 30.6103H1.19463C1.14301 30.6103 1.09351 30.6306 1.05701 30.6666C1.02051 30.7027 1 30.7516 1 30.8026C1 30.8536 1.02051 30.9025 1.05701 30.9386C1.09351 30.9746 1.14301 30.9949 1.19463 30.9949H11.7048C11.7339 30.9946 11.7626 30.9881 11.7888 30.9757C11.815 30.9633 11.8382 30.9453 11.8566 30.9231C11.8696 30.9064 13.2009 29.3092 15.9323 29.3092C16.3099 29.3082 16.6868 29.3408 17.0585 29.4067L15.7778 30.6706C15.7508 30.6976 15.7325 30.7319 15.7251 30.7692C15.7177 30.8065 15.7216 30.8451 15.7362 30.8803C15.7509 30.9154 15.7757 30.9455 15.8076 30.9668C15.8394 30.9881 15.8769 30.9996 15.9154 31C15.9409 31 15.9663 30.9951 15.9899 30.9854C16.0135 30.9757 16.0349 30.9615 16.0529 30.9436L17.5127 29.4951C19.1437 29.9207 19.8989 30.8962 19.908 30.9051C19.9259 30.9296 19.9496 30.9494 19.9769 30.963C20.0042 30.9766 20.0344 30.9836 20.065 30.9833H30.5751C30.6268 30.9833 30.6763 30.9631 30.7128 30.927C30.7493 30.891 30.7698 30.8421 30.7698 30.7911C30.7698 30.7401 30.7493 30.6912 30.7128 30.6551C30.6763 30.619 30.6268 30.5988 30.5751 30.5988H20.1584C19.9443 30.3501 19.2034 29.5861 17.8306 29.1772L18.8024 28.2184C19.3642 28.4687 19.8823 28.8053 20.3374 29.2157C20.3555 29.234 20.3771 29.2485 20.4009 29.2584C20.4248 29.2683 20.4504 29.2734 20.4763 29.2733H30.5687C30.6203 29.2733 30.6698 29.2531 30.7063 29.217C30.7428 29.181 30.7633 29.1321 30.7633 29.0811C30.7633 29.0301 30.7428 28.9812 30.7063 28.9451C30.6698 28.909 30.6203 28.8888 30.5687 28.8888H20.5554C20.1186 28.5013 19.6284 28.1768 19.0996 27.9248L20.5697 26.4725C21.2249 27.0494 22.0784 27.3574 22.9557 27.3336C23.8331 27.3098 24.6681 26.9559 25.2902 26.3443L35.5694 16.1933L36.2026 16.8201C36.2393 16.8558 36.2887 16.8761 36.3402 16.8765C36.3657 16.8766 36.3911 16.8716 36.4147 16.8619C36.4383 16.8523 36.4597 16.838 36.4777 16.8201L37.312 15.9959C37.3303 15.9781 37.3447 15.957 37.3546 15.9337C37.3644 15.9103 37.3695 15.8853 37.3695 15.86C37.3695 15.8347 37.3644 15.8097 37.3546 15.7864C37.3447 15.7631 37.3303 15.7419 37.312 15.7241L35.1322 13.5706L37.4924 11.2377L38.6667 12.3977C38.7034 12.4335 38.7527 12.4537 38.8042 12.4541C38.8428 12.4544 38.8806 12.4432 38.9128 12.4222C38.945 12.4012 38.9701 12.3712 38.985 12.336C38.9998 12.3008 39.0038 12.2621 38.9963 12.2247C38.9889 12.1873 38.9703 12.1529 38.9431 12.126ZM20.7034 26.0738C20.1329 25.5083 19.8127 24.7424 19.8127 23.944C19.8127 23.1456 20.1329 22.3798 20.7034 21.8142L23.3478 19.2005L31.9817 19.1941L25.0164 26.0751C24.4437 26.6389 23.6681 26.9553 22.8596 26.955C22.0511 26.9548 21.2757 26.6379 20.7034 26.0738ZM32.3697 18.8096L23.7357 18.816L26.6345 15.9536L27.4195 16.7227C27.4562 16.7584 27.5055 16.7787 27.557 16.7791C27.5955 16.7791 27.6331 16.7678 27.6651 16.7467C27.6971 16.7255 27.722 16.6955 27.7367 16.6604C27.7514 16.6253 27.7553 16.5866 27.7478 16.5494C27.7403 16.5121 27.7218 16.4778 27.6946 16.451L26.9096 15.6742L27.6595 14.9332L28.4459 15.71C28.4639 15.728 28.4853 15.7422 28.5089 15.7519C28.5325 15.7615 28.5578 15.7665 28.5834 15.7664C28.6219 15.7661 28.6594 15.7545 28.6912 15.7332C28.7231 15.7119 28.7479 15.6818 28.7625 15.6467C28.7772 15.6116 28.7811 15.573 28.7737 15.5357C28.7663 15.4984 28.7479 15.4641 28.7209 15.437L27.9346 14.6679L28.6859 13.927L29.4709 14.6961C29.5074 14.7321 29.5569 14.7523 29.6085 14.7523C29.66 14.7523 29.7095 14.7321 29.746 14.6961C29.7642 14.6783 29.7787 14.6572 29.7885 14.6339C29.7984 14.6105 29.8035 14.5855 29.8035 14.5602C29.8035 14.5349 29.7984 14.5099 29.7885 14.4866C29.7787 14.4633 29.7642 14.4421 29.746 14.4243L28.961 13.6552L29.711 12.9143L30.496 13.6834C30.5327 13.7192 30.582 13.7394 30.6335 13.7398C30.6705 13.7382 30.7062 13.7262 30.7365 13.7052C30.7668 13.6842 30.7904 13.6551 30.8046 13.6214C30.8187 13.5876 30.8229 13.5505 30.8165 13.5145C30.8101 13.4785 30.7934 13.4451 30.7685 13.4181L29.99 12.6413L30.9813 11.6619L35.2957 15.9228L32.3697 18.8096ZM36.3389 16.4125L30.4765 10.6211L31.0358 10.0686L36.8981 15.86L36.3389 16.4125ZM34.8558 13.2976L33.6361 12.0927L35.9963 9.76096L37.216 10.9659L34.8558 13.2976Z"/>
</mask>
<path d="M38.9431 12.126L37.6287 10.83L34.822 8.05609C34.8039 8.03825 34.7824 8.02411 34.7587 8.01449C34.735 8.00486 34.7096 7.99994 34.684 8C34.6584 8.00006 34.6331 8.0051 34.6095 8.01484C34.5858 8.02457 34.5644 8.03881 34.5463 8.05674C34.5283 8.07466 34.5139 8.09593 34.5042 8.11932C34.4945 8.14271 34.4895 8.16777 34.4895 8.19307C34.4896 8.21836 34.4947 8.24339 34.5046 8.26674C34.5144 8.29009 34.5288 8.31129 34.547 8.32913L35.7213 9.4828L33.3636 11.8209L31.1733 9.66098C31.1553 9.64299 31.1339 9.62872 31.1103 9.61897C31.0867 9.60923 31.0614 9.60421 31.0358 9.60421C31.0102 9.60421 30.9849 9.60923 30.9613 9.61897C30.9376 9.62872 30.9162 9.64299 30.8982 9.66098L30.0639 10.4852C30.0278 10.5214 30.0075 10.5702 30.0075 10.6211C30.0075 10.6719 30.0278 10.7207 30.0639 10.757L30.7036 11.3889L29.6007 12.4746C29.5874 12.4816 29.5748 12.4897 29.5631 12.499C29.5532 12.5107 29.5449 12.5236 29.5384 12.5375L28.5756 13.4873C28.5621 13.4944 28.5495 13.503 28.538 13.5129C28.5275 13.5239 28.5187 13.5365 28.512 13.5501L27.5544 14.4974C27.5407 14.5043 27.5277 14.5125 27.5155 14.5218C27.5061 14.5333 27.4979 14.5458 27.4909 14.5589L26.5281 15.5101C26.5145 15.517 26.5018 15.5256 26.4904 15.5357C26.4803 15.5468 26.472 15.5593 26.4658 15.5729L20.427 21.5476C19.8078 22.1624 19.4496 22.9876 19.4254 23.8545C19.4013 24.7215 19.7131 25.5648 20.2972 26.2123L18.7246 27.7659C17.8424 27.3994 16.8945 27.2119 15.9374 27.2147C14.2136 27.2093 12.5433 27.8064 11.2221 28.9003H1.19463C1.14301 28.9003 1.09351 28.9206 1.05701 28.9566C1.02051 28.9927 1 29.0416 1 29.0926C1 29.1436 1.02051 29.1925 1.05701 29.2286C1.09351 29.2646 1.14301 29.2849 1.19463 29.2849H11.2961C11.3447 29.2839 11.3911 29.2647 11.4258 29.231C12.6859 28.1795 14.2815 27.6015 15.931 27.5992C16.7812 27.5983 17.6239 27.7567 18.4145 28.0658L17.3894 29.0772C16.9103 28.9744 16.4213 28.9233 15.931 28.9247C13.3112 28.9247 11.9189 30.2745 11.614 30.6103H1.19463C1.14301 30.6103 1.09351 30.6306 1.05701 30.6666C1.02051 30.7027 1 30.7516 1 30.8026C1 30.8536 1.02051 30.9025 1.05701 30.9386C1.09351 30.9746 1.14301 30.9949 1.19463 30.9949H11.7048C11.7339 30.9946 11.7626 30.9881 11.7888 30.9757C11.815 30.9633 11.8382 30.9453 11.8566 30.9231C11.8696 30.9064 13.2009 29.3092 15.9323 29.3092C16.3099 29.3082 16.6868 29.3408 17.0585 29.4067L15.7778 30.6706C15.7508 30.6976 15.7325 30.7319 15.7251 30.7692C15.7177 30.8065 15.7216 30.8451 15.7362 30.8803C15.7509 30.9154 15.7757 30.9455 15.8076 30.9668C15.8394 30.9881 15.8769 30.9996 15.9154 31C15.9409 31 15.9663 30.9951 15.9899 30.9854C16.0135 30.9757 16.0349 30.9615 16.0529 30.9436L17.5127 29.4951C19.1437 29.9207 19.8989 30.8962 19.908 30.9051C19.9259 30.9296 19.9496 30.9494 19.9769 30.963C20.0042 30.9766 20.0344 30.9836 20.065 30.9833H30.5751C30.6268 30.9833 30.6763 30.9631 30.7128 30.927C30.7493 30.891 30.7698 30.8421 30.7698 30.7911C30.7698 30.7401 30.7493 30.6912 30.7128 30.6551C30.6763 30.619 30.6268 30.5988 30.5751 30.5988H20.1584C19.9443 30.3501 19.2034 29.5861 17.8306 29.1772L18.8024 28.2184C19.3642 28.4687 19.8823 28.8053 20.3374 29.2157C20.3555 29.234 20.3771 29.2485 20.4009 29.2584C20.4248 29.2683 20.4504 29.2734 20.4763 29.2733H30.5687C30.6203 29.2733 30.6698 29.2531 30.7063 29.217C30.7428 29.181 30.7633 29.1321 30.7633 29.0811C30.7633 29.0301 30.7428 28.9812 30.7063 28.9451C30.6698 28.909 30.6203 28.8888 30.5687 28.8888H20.5554C20.1186 28.5013 19.6284 28.1768 19.0996 27.9248L20.5697 26.4725C21.2249 27.0494 22.0784 27.3574 22.9557 27.3336C23.8331 27.3098 24.6681 26.9559 25.2902 26.3443L35.5694 16.1933L36.2026 16.8201C36.2393 16.8558 36.2887 16.8761 36.3402 16.8765C36.3657 16.8766 36.3911 16.8716 36.4147 16.8619C36.4383 16.8523 36.4597 16.838 36.4777 16.8201L37.312 15.9959C37.3303 15.9781 37.3447 15.957 37.3546 15.9337C37.3644 15.9103 37.3695 15.8853 37.3695 15.86C37.3695 15.8347 37.3644 15.8097 37.3546 15.7864C37.3447 15.7631 37.3303 15.7419 37.312 15.7241L35.1322 13.5706L37.4924 11.2377L38.6667 12.3977C38.7034 12.4335 38.7527 12.4537 38.8042 12.4541C38.8428 12.4544 38.8806 12.4432 38.9128 12.4222C38.945 12.4012 38.9701 12.3712 38.985 12.336C38.9998 12.3008 39.0038 12.2621 38.9963 12.2247C38.9889 12.1873 38.9703 12.1529 38.9431 12.126ZM20.7034 26.0738C20.1329 25.5083 19.8127 24.7424 19.8127 23.944C19.8127 23.1456 20.1329 22.3798 20.7034 21.8142L23.3478 19.2005L31.9817 19.1941L25.0164 26.0751C24.4437 26.6389 23.6681 26.9553 22.8596 26.955C22.0511 26.9548 21.2757 26.6379 20.7034 26.0738ZM32.3697 18.8096L23.7357 18.816L26.6345 15.9536L27.4195 16.7227C27.4562 16.7584 27.5055 16.7787 27.557 16.7791C27.5955 16.7791 27.6331 16.7678 27.6651 16.7467C27.6971 16.7255 27.722 16.6955 27.7367 16.6604C27.7514 16.6253 27.7553 16.5866 27.7478 16.5494C27.7403 16.5121 27.7218 16.4778 27.6946 16.451L26.9096 15.6742L27.6595 14.9332L28.4459 15.71C28.4639 15.728 28.4853 15.7422 28.5089 15.7519C28.5325 15.7615 28.5578 15.7665 28.5834 15.7664C28.6219 15.7661 28.6594 15.7545 28.6912 15.7332C28.7231 15.7119 28.7479 15.6818 28.7625 15.6467C28.7772 15.6116 28.7811 15.573 28.7737 15.5357C28.7663 15.4984 28.7479 15.4641 28.7209 15.437L27.9346 14.6679L28.6859 13.927L29.4709 14.6961C29.5074 14.7321 29.5569 14.7523 29.6085 14.7523C29.66 14.7523 29.7095 14.7321 29.746 14.6961C29.7642 14.6783 29.7787 14.6572 29.7885 14.6339C29.7984 14.6105 29.8035 14.5855 29.8035 14.5602C29.8035 14.5349 29.7984 14.5099 29.7885 14.4866C29.7787 14.4633 29.7642 14.4421 29.746 14.4243L28.961 13.6552L29.711 12.9143L30.496 13.6834C30.5327 13.7192 30.582 13.7394 30.6335 13.7398C30.6705 13.7382 30.7062 13.7262 30.7365 13.7052C30.7668 13.6842 30.7904 13.6551 30.8046 13.6214C30.8187 13.5876 30.8229 13.5505 30.8165 13.5145C30.8101 13.4785 30.7934 13.4451 30.7685 13.4181L29.99 12.6413L30.9813 11.6619L35.2957 15.9228L32.3697 18.8096ZM36.3389 16.4125L30.4765 10.6211L31.0358 10.0686L36.8981 15.86L36.3389 16.4125ZM34.8558 13.2976L33.6361 12.0927L35.9963 9.76096L37.216 10.9659L34.8558 13.2976Z" fill="#E30C5C"/>
<path d="M38.9431 12.126L37.6287 10.83L34.822 8.05609C34.8039 8.03825 34.7824 8.02411 34.7587 8.01449C34.735 8.00486 34.7096 7.99994 34.684 8C34.6584 8.00006 34.6331 8.0051 34.6095 8.01484C34.5858 8.02457 34.5644 8.03881 34.5463 8.05674C34.5283 8.07466 34.5139 8.09593 34.5042 8.11932C34.4945 8.14271 34.4895 8.16777 34.4895 8.19307C34.4896 8.21836 34.4947 8.24339 34.5046 8.26674C34.5144 8.29009 34.5288 8.31129 34.547 8.32913L35.7213 9.4828L33.3636 11.8209L31.1733 9.66098C31.1553 9.64299 31.1339 9.62872 31.1103 9.61897C31.0867 9.60923 31.0614 9.60421 31.0358 9.60421C31.0102 9.60421 30.9849 9.60923 30.9613 9.61897C30.9376 9.62872 30.9162 9.64299 30.8982 9.66098L30.0639 10.4852C30.0278 10.5214 30.0075 10.5702 30.0075 10.6211C30.0075 10.6719 30.0278 10.7207 30.0639 10.757L30.7036 11.3889L29.6007 12.4746C29.5874 12.4816 29.5748 12.4897 29.5631 12.499C29.5532 12.5107 29.5449 12.5236 29.5384 12.5375L28.5756 13.4873C28.5621 13.4944 28.5495 13.503 28.538 13.5129C28.5275 13.5239 28.5187 13.5365 28.512 13.5501L27.5544 14.4974C27.5407 14.5043 27.5277 14.5125 27.5155 14.5218C27.5061 14.5333 27.4979 14.5458 27.4909 14.5589L26.5281 15.5101C26.5145 15.517 26.5018 15.5256 26.4904 15.5357C26.4803 15.5468 26.472 15.5593 26.4658 15.5729L20.427 21.5476C19.8078 22.1624 19.4496 22.9876 19.4254 23.8545C19.4013 24.7215 19.7131 25.5648 20.2972 26.2123L18.7246 27.7659C17.8424 27.3994 16.8945 27.2119 15.9374 27.2147C14.2136 27.2093 12.5433 27.8064 11.2221 28.9003H1.19463C1.14301 28.9003 1.09351 28.9206 1.05701 28.9566C1.02051 28.9927 1 29.0416 1 29.0926C1 29.1436 1.02051 29.1925 1.05701 29.2286C1.09351 29.2646 1.14301 29.2849 1.19463 29.2849H11.2961C11.3447 29.2839 11.3911 29.2647 11.4258 29.231C12.6859 28.1795 14.2815 27.6015 15.931 27.5992C16.7812 27.5983 17.6239 27.7567 18.4145 28.0658L17.3894 29.0772C16.9103 28.9744 16.4213 28.9233 15.931 28.9247C13.3112 28.9247 11.9189 30.2745 11.614 30.6103H1.19463C1.14301 30.6103 1.09351 30.6306 1.05701 30.6666C1.02051 30.7027 1 30.7516 1 30.8026C1 30.8536 1.02051 30.9025 1.05701 30.9386C1.09351 30.9746 1.14301 30.9949 1.19463 30.9949H11.7048C11.7339 30.9946 11.7626 30.9881 11.7888 30.9757C11.815 30.9633 11.8382 30.9453 11.8566 30.9231C11.8696 30.9064 13.2009 29.3092 15.9323 29.3092C16.3099 29.3082 16.6868 29.3408 17.0585 29.4067L15.7778 30.6706C15.7508 30.6976 15.7325 30.7319 15.7251 30.7692C15.7177 30.8065 15.7216 30.8451 15.7362 30.8803C15.7509 30.9154 15.7757 30.9455 15.8076 30.9668C15.8394 30.9881 15.8769 30.9996 15.9154 31C15.9409 31 15.9663 30.9951 15.9899 30.9854C16.0135 30.9757 16.0349 30.9615 16.0529 30.9436L17.5127 29.4951C19.1437 29.9207 19.8989 30.8962 19.908 30.9051C19.9259 30.9296 19.9496 30.9494 19.9769 30.963C20.0042 30.9766 20.0344 30.9836 20.065 30.9833H30.5751C30.6268 30.9833 30.6763 30.9631 30.7128 30.927C30.7493 30.891 30.7698 30.8421 30.7698 30.7911C30.7698 30.7401 30.7493 30.6912 30.7128 30.6551C30.6763 30.619 30.6268 30.5988 30.5751 30.5988H20.1584C19.9443 30.3501 19.2034 29.5861 17.8306 29.1772L18.8024 28.2184C19.3642 28.4687 19.8823 28.8053 20.3374 29.2157C20.3555 29.234 20.3771 29.2485 20.4009 29.2584C20.4248 29.2683 20.4504 29.2734 20.4763 29.2733H30.5687C30.6203 29.2733 30.6698 29.2531 30.7063 29.217C30.7428 29.181 30.7633 29.1321 30.7633 29.0811C30.7633 29.0301 30.7428 28.9812 30.7063 28.9451C30.6698 28.909 30.6203 28.8888 30.5687 28.8888H20.5554C20.1186 28.5013 19.6284 28.1768 19.0996 27.9248L20.5697 26.4725C21.2249 27.0494 22.0784 27.3574 22.9557 27.3336C23.8331 27.3098 24.6681 26.9559 25.2902 26.3443L35.5694 16.1933L36.2026 16.8201C36.2393 16.8558 36.2887 16.8761 36.3402 16.8765C36.3657 16.8766 36.3911 16.8716 36.4147 16.8619C36.4383 16.8523 36.4597 16.838 36.4777 16.8201L37.312 15.9959C37.3303 15.9781 37.3447 15.957 37.3546 15.9337C37.3644 15.9103 37.3695 15.8853 37.3695 15.86C37.3695 15.8347 37.3644 15.8097 37.3546 15.7864C37.3447 15.7631 37.3303 15.7419 37.312 15.7241L35.1322 13.5706L37.4924 11.2377L38.6667 12.3977C38.7034 12.4335 38.7527 12.4537 38.8042 12.4541C38.8428 12.4544 38.8806 12.4432 38.9128 12.4222C38.945 12.4012 38.9701 12.3712 38.985 12.336C38.9998 12.3008 39.0038 12.2621 38.9963 12.2247C38.9889 12.1873 38.9703 12.1529 38.9431 12.126ZM20.7034 26.0738C20.1329 25.5083 19.8127 24.7424 19.8127 23.944C19.8127 23.1456 20.1329 22.3798 20.7034 21.8142L23.3478 19.2005L31.9817 19.1941L25.0164 26.0751C24.4437 26.6389 23.6681 26.9553 22.8596 26.955C22.0511 26.9548 21.2757 26.6379 20.7034 26.0738ZM32.3697 18.8096L23.7357 18.816L26.6345 15.9536L27.4195 16.7227C27.4562 16.7584 27.5055 16.7787 27.557 16.7791C27.5955 16.7791 27.6331 16.7678 27.6651 16.7467C27.6971 16.7255 27.722 16.6955 27.7367 16.6604C27.7514 16.6253 27.7553 16.5866 27.7478 16.5494C27.7403 16.5121 27.7218 16.4778 27.6946 16.451L26.9096 15.6742L27.6595 14.9332L28.4459 15.71C28.4639 15.728 28.4853 15.7422 28.5089 15.7519C28.5325 15.7615 28.5578 15.7665 28.5834 15.7664C28.6219 15.7661 28.6594 15.7545 28.6912 15.7332C28.7231 15.7119 28.7479 15.6818 28.7625 15.6467C28.7772 15.6116 28.7811 15.573 28.7737 15.5357C28.7663 15.4984 28.7479 15.4641 28.7209 15.437L27.9346 14.6679L28.6859 13.927L29.4709 14.6961C29.5074 14.7321 29.5569 14.7523 29.6085 14.7523C29.66 14.7523 29.7095 14.7321 29.746 14.6961C29.7642 14.6783 29.7787 14.6572 29.7885 14.6339C29.7984 14.6105 29.8035 14.5855 29.8035 14.5602C29.8035 14.5349 29.7984 14.5099 29.7885 14.4866C29.7787 14.4633 29.7642 14.4421 29.746 14.4243L28.961 13.6552L29.711 12.9143L30.496 13.6834C30.5327 13.7192 30.582 13.7394 30.6335 13.7398C30.6705 13.7382 30.7062 13.7262 30.7365 13.7052C30.7668 13.6842 30.7904 13.6551 30.8046 13.6214C30.8187 13.5876 30.8229 13.5505 30.8165 13.5145C30.8101 13.4785 30.7934 13.4451 30.7685 13.4181L29.99 12.6413L30.9813 11.6619L35.2957 15.9228L32.3697 18.8096ZM36.3389 16.4125L30.4765 10.6211L31.0358 10.0686L36.8981 15.86L36.3389 16.4125ZM34.8558 13.2976L33.6361 12.0927L35.9963 9.76096L37.216 10.9659L34.8558 13.2976Z" stroke="#E30C5C" stroke-width="0.4" mask="url(#path-2-outside-1_36_550)"/>
</svg>
