<svg width="24" height="24" viewBox="0 0 24 24" fill="none" xmlns="http://www.w3.org/2000/svg">
<path fill-rule="evenodd" clip-rule="evenodd" d="M22 12C22 6.481 17.52 2 12 2C6.47 2 2 6.481 2 12C2 17.521 6.47 22 12 22C17.52 22 22 17.521 22 12ZM13 7.85575C13 7.38995 12.5429 7 11.9943 7C11.4457 7 11 7.38995 11 7.85575L11 12.154C11 12.6217 11.4457 13 11.9943 13C12.5429 13 13 12.6217 13 12.154L13 7.85575ZM11.9943 17C12.5543 17 13 16.5429 13 15.9943C13 15.4457 12.5543 15 12.0057 15C11.4457 15 11 15.4457 11 15.9943C11 16.5429 11.4457 17 11.9943 17Z" fill="#959595"/>
</svg>
