<svg width="24" height="24" viewBox="0 0 24 24" fill="none" xmlns="http://www.w3.org/2000/svg">
<path fill-rule="evenodd" clip-rule="evenodd" d="M22 12C22 6.481 17.52 2 12 2C6.47 2 2 6.481 2 12C2 17.521 6.47 22 12 22C17.52 22 22 17.521 22 12ZM9.36568 8.23431C9.05327 7.92189 8.54673 7.92189 8.23431 8.23431C7.92189 8.54673 7.92189 9.05327 8.23431 9.36569L10.8686 12L8.23431 14.6343C7.92189 14.9467 7.92189 15.4533 8.23431 15.7657C8.54673 16.0781 9.05327 16.0781 9.36569 15.7657L12 13.1314L14.6343 15.7657C14.9467 16.0781 15.4533 16.0781 15.7657 15.7657C16.0781 15.4533 16.0781 14.9467 15.7657 14.6343L13.1314 12L15.7657 9.36569C16.0781 9.05327 16.0781 8.54673 15.7657 8.23431C15.4533 7.92189 14.9467 7.92189 14.6343 8.23431L12 10.8686L9.36568 8.23431Z" fill="#959595"/>
</svg>
