<svg width="24" height="24" viewBox="0 0 24 24" fill="none" xmlns="http://www.w3.org/2000/svg">
<path fill-rule="evenodd" clip-rule="evenodd" d="M22 12C22 6.481 17.52 2 12 2C6.47 2 2 6.481 2 12C2 17.521 6.47 22 12 22C17.52 22 22 17.521 22 12ZM16.7861 10.348C17.094 10.0165 17.0662 9.50575 16.7241 9.20735C16.382 8.90894 15.8551 8.93582 15.5472 9.26738L11.1348 14.0192L8.42259 11.3904C8.09715 11.075 7.56951 11.075 7.24408 11.3904C6.91864 11.7058 6.91864 12.2172 7.24408 12.5327L10.5774 15.7634C10.7391 15.9201 10.96 16.0055 11.1886 15.9997C11.4171 15.9939 11.6331 15.8973 11.7861 15.7326L16.7861 10.348Z" fill="#959595"/>
</svg>
