<svg width="40" height="40" viewBox="0 0 40 40" fill="none" xmlns="http://www.w3.org/2000/svg">
<path d="M0 6C0 2.68629 2.68629 0 6 0H34C37.3137 0 40 2.68629 40 6V34C40 37.3137 37.3137 40 34 40H6C2.68629 40 0 37.3137 0 34V6Z" fill="#F3F3F3"/>
<path d="M32.927 13.6001L26.4002 7.07341C26.3525 7.02637 26.2882 7 26.2212 7C26.1542 7 26.0899 7.02637 26.0422 7.07341L8.61228 24.505C7.8882 25.2243 7.40982 26.154 7.24542 27.1614C7.08101 28.1687 7.23899 29.2022 7.69679 30.1145L7.00763 32.6819C6.99612 32.7249 6.99615 32.7702 7.00772 32.8132C7.01928 32.8562 7.04198 32.8954 7.07351 32.9269C7.12129 32.9739 7.18549 33.0006 7.25255 33.0012C7.27476 33.0009 7.29686 32.998 7.31843 32.9927L9.88756 32.3036C10.7995 32.7612 11.8328 32.9191 12.8399 32.7547C13.8469 32.5903 14.7763 32.112 15.4954 31.3881L32.927 13.9582C32.974 13.9105 33.0004 13.8462 33.0004 13.7792C33.0004 13.7121 32.974 13.6478 32.927 13.6001ZM15.1373 31.03C14.4808 31.6903 13.6294 32.1221 12.7088 32.2617C11.7882 32.4013 10.8471 32.2413 10.0244 31.8053C9.98947 31.7869 9.95063 31.7774 9.9112 31.7774C9.87177 31.7774 9.83294 31.7869 9.79803 31.8053L7.61064 32.3914L8.19338 30.2175C8.21291 30.1806 8.22312 30.1394 8.22312 30.0976C8.22312 30.0558 8.21291 30.0146 8.19338 29.9777C7.75687 29.1551 7.59657 28.2138 7.73619 27.2931C7.8758 26.3724 8.30792 25.521 8.96868 24.8648L26.2212 7.61054L32.3898 13.7792L15.1373 31.03Z" fill="#E30C5C"/>
<path d="M10.901 26.7937L10.8857 26.8106L10.8638 26.8326C10.7125 26.9839 10.5925 27.1634 10.5106 27.3611C10.4288 27.5588 10.3866 27.7706 10.3866 27.9845C10.3866 28.1985 10.4288 28.4103 10.5106 28.608C10.5925 28.8056 10.7125 28.9852 10.8638 29.1365C11.0151 29.2878 11.1947 29.4078 11.3923 29.4897C11.59 29.5715 11.8018 29.6137 12.0158 29.6137C12.2297 29.6137 12.4415 29.5715 12.6392 29.4897C12.8369 29.4078 13.0165 29.2878 13.1677 29.1365L13.1897 29.1146L13.2066 29.0993L28.5234 13.7825C28.5708 13.735 28.5975 13.6706 28.5975 13.6035C28.5975 13.5364 28.5708 13.472 28.5234 13.4245L26.5758 11.4769C26.5281 11.4299 26.4638 11.4035 26.3968 11.4035C26.3298 11.4035 26.2655 11.4299 26.2178 11.4769L10.901 26.7937ZM27.9862 13.6035L12.8738 28.7142L12.8384 28.7463L12.8096 28.7784C12.7047 28.8819 12.5804 28.9637 12.4439 29.0191C12.3074 29.0746 12.1613 29.1026 12.0139 29.1016C11.8666 29.1006 11.7208 29.0705 11.5851 29.0132C11.4493 28.9559 11.3262 28.8724 11.2227 28.7674C11.1192 28.6625 11.0374 28.5382 10.982 28.4017C10.9266 28.2652 10.8985 28.1191 10.8996 27.9717C10.9006 27.8244 10.9306 27.6786 10.9879 27.5429C11.0453 27.4071 11.1288 27.284 11.2337 27.1805L11.254 27.1619C11.2659 27.1517 11.2761 27.1398 11.2844 27.1265L26.3968 12.0157L27.9862 13.6035Z" fill="#E30C5C"/>
<path fill-rule="evenodd" clip-rule="evenodd" d="M33.0692 13.4595C33.1531 13.5447 33.2002 13.6594 33.2002 13.779C33.2002 13.8985 33.1531 14.0133 33.0692 14.0984L33.0682 14.0994L15.6371 31.5288C15.637 31.5289 15.6371 31.5288 15.6371 31.5288C14.8883 32.2826 13.9205 32.7807 12.8719 32.9519C11.8485 33.119 10.7991 32.9664 9.86652 32.516L7.36593 33.1868C7.3297 33.1957 7.29255 33.2004 7.25521 33.201L7.25056 33.201C7.1316 33.2 7.01771 33.1526 6.93295 33.0691L6.93211 33.0683C6.87568 33.012 6.83508 32.9419 6.81439 32.865C6.79369 32.788 6.79364 32.707 6.81423 32.63L7.48392 30.1351C7.0334 29.2022 6.88077 28.1526 7.04783 27.129C7.219 26.0802 7.71702 25.1122 8.47083 24.3632C8.47073 24.3633 8.47093 24.3631 8.47083 24.3632L25.9005 6.9318L25.9016 6.93077C25.9867 6.84685 26.1015 6.7998 26.221 6.7998C26.3406 6.7998 26.4553 6.84685 26.5405 6.93077L26.5415 6.93179L33.0692 13.4595ZM8.61209 24.5048L26.042 7.07321C26.0897 7.02617 26.154 6.9998 26.221 6.9998C26.288 6.9998 26.3523 7.02617 26.4001 7.07321L32.9268 13.5999C32.9738 13.6476 33.0002 13.712 33.0002 13.779C33.0002 13.846 32.9738 13.9103 32.9268 13.958L15.4952 31.3879C14.7761 32.1118 13.8467 32.5901 12.8397 32.7545C11.8326 32.9189 10.7994 32.761 9.88736 32.3034L7.31823 32.9925C7.29666 32.9978 7.27456 33.0007 7.25236 33.001C7.18529 33.0004 7.12109 32.9737 7.07331 32.9267C7.04178 32.8952 7.01909 32.856 7.00752 32.813C6.99596 32.77 6.99593 32.7248 7.00744 32.6817L7.69659 30.1143C7.23879 29.2021 7.08082 28.1685 7.24522 27.1612C7.40962 26.1538 7.888 25.2241 8.61209 24.5048ZM14.9957 30.8884L32.1068 13.779L26.221 7.8932L9.10992 25.006C8.47961 25.632 8.06691 26.4446 7.93373 27.3229C7.80055 28.2012 7.95346 29.099 8.36986 29.8837C8.40459 29.9495 8.42292 30.023 8.42292 30.0974C8.42292 30.1632 8.40871 30.2281 8.38138 30.2877L7.89333 32.1084L9.72777 31.6168C9.78524 31.5907 9.84771 31.5772 9.91101 31.5772C9.98285 31.5772 10.0536 31.5946 10.1172 31.6281C10.9021 32.044 11.8004 32.1969 12.6786 32.0637C13.5568 31.9306 14.3694 31.5182 14.9957 30.8884ZM9.79784 31.8051L7.61045 32.3912L8.19319 30.2173C8.21271 30.1804 8.22292 30.1392 8.22292 30.0974C8.22292 30.0556 8.21271 30.0144 8.19319 29.9775C7.75667 29.1549 7.59637 28.2136 7.73599 27.2929C7.87561 26.3722 8.30773 25.5208 8.96849 24.8646L26.221 7.61035L32.3896 13.779L15.1371 31.0298C14.4806 31.6901 13.6292 32.1219 12.7086 32.2615C11.788 32.4011 10.8469 32.2411 10.0242 31.8051C9.98928 31.7867 9.95044 31.7772 9.91101 31.7772C9.87158 31.7772 9.83274 31.7867 9.79784 31.8051ZM10.7593 26.6521L26.0772 11.3343C26.1623 11.2504 26.2771 11.2033 26.3966 11.2033C26.5162 11.2033 26.6309 11.2504 26.716 11.3343L26.7171 11.3353L28.6646 13.2828C28.7495 13.3678 28.7973 13.4832 28.7973 13.6033C28.7973 13.7234 28.7496 13.8387 28.6647 13.9237L13.3404 29.248L13.3272 29.2595L13.309 29.2777C13.1391 29.4476 12.9375 29.5823 12.7155 29.6742C12.4936 29.7662 12.2558 29.8135 12.0156 29.8135C11.7754 29.8135 11.5375 29.7662 11.3156 29.6742C11.0937 29.5823 10.892 29.4476 10.7222 29.2777C10.5523 29.1079 10.4176 28.9062 10.3257 28.6843C10.2337 28.4624 10.1864 28.2246 10.1864 27.9843C10.1864 27.7441 10.2337 27.5063 10.3257 27.2844C10.4176 27.0624 10.5523 26.8608 10.7222 26.691L10.7404 26.6727L10.7593 26.6521ZM10.8856 26.8104L10.8636 26.8324C10.7123 26.9837 10.5923 27.1632 10.5104 27.3609C10.4286 27.5586 10.3864 27.7704 10.3864 27.9843C10.3864 28.1983 10.4286 28.4101 10.5104 28.6078C10.5923 28.8054 10.7123 28.985 10.8636 29.1363C11.0149 29.2876 11.1945 29.4076 11.3921 29.4895C11.5898 29.5713 11.8016 29.6135 12.0156 29.6135C12.2295 29.6135 12.4414 29.5713 12.639 29.4895C12.8367 29.4076 13.0163 29.2876 13.1675 29.1363L13.1895 29.1144L13.2064 29.0992L28.5232 13.7824C28.5706 13.7348 28.5973 13.6704 28.5973 13.6033C28.5973 13.5362 28.5706 13.4718 28.5232 13.4243L26.5757 11.4767C26.5279 11.4297 26.4636 11.4033 26.3966 11.4033C26.3296 11.4033 26.2653 11.4297 26.2176 11.4767L10.9008 26.7935L10.8856 26.8104ZM12.8382 28.7461L12.8736 28.714L27.9861 13.6033L26.3966 12.0155L11.2842 27.1263C11.2759 27.1396 11.2657 27.1515 11.2538 27.1618L11.2335 27.1803C11.1286 27.2838 11.0451 27.4069 10.9877 27.5427C10.9304 27.6784 10.9004 27.8242 10.8994 27.9715C10.8983 28.1189 10.9264 28.265 10.9818 28.4015C11.0373 28.5381 11.1191 28.6623 11.2225 28.7672C11.326 28.8722 11.4491 28.9557 11.5849 29.013C11.7206 29.0703 11.8664 29.1004 12.0137 29.1014C12.1611 29.1024 12.3072 29.0744 12.4437 29.019C12.5803 28.9635 12.7045 28.8817 12.8094 28.7782L12.8382 28.7461ZM12.6648 28.64L12.6961 28.6049L12.7357 28.5691L27.7031 13.6034L26.3967 12.2983L11.4385 27.2548C11.4234 27.2753 11.4062 27.2941 11.3871 27.3109L11.3715 27.3252C11.2864 27.4097 11.2187 27.51 11.172 27.6205C11.1249 27.7321 11.1002 27.8518 11.0994 27.9729C11.0985 28.094 11.1215 28.2141 11.1671 28.3263C11.2127 28.4385 11.2799 28.5406 11.3649 28.6268C11.45 28.713 11.5511 28.7817 11.6627 28.8288C11.7743 28.8759 11.894 28.9006 12.0151 28.9014C12.1362 28.9022 12.2563 28.8792 12.3685 28.8337C12.4788 28.7888 12.5794 28.7231 12.6648 28.64Z" fill="#E30C5C"/>
</svg>
