<svg width="40" height="40" viewBox="0 0 40 40" fill="none" xmlns="http://www.w3.org/2000/svg">
<path d="M0 6C0 2.68629 2.68629 0 6 0H34C37.3137 0 40 2.68629 40 6V34C40 37.3137 37.3137 40 34 40H6C2.68629 40 0 37.3137 0 34V6Z" fill="#F3F3F3"/>
<path d="M19.7462 5.35893C19.72 5.31782 19.6837 5.28393 19.6406 5.26043C19.5976 5.23694 19.5491 5.22461 19.4999 5.22461C19.4506 5.22461 19.4022 5.23694 19.3591 5.26043C19.316 5.28393 19.2797 5.31782 19.2536 5.35893C18.8783 5.95953 10.0557 20.1125 10.0557 25.1144C10.0557 27.5806 11.0507 29.9458 12.8218 31.6897C14.5929 33.4336 16.9951 34.4133 19.4999 34.4133C22.0046 34.4133 24.4068 33.4336 26.1779 31.6897C27.9491 29.9458 28.9441 27.5806 28.9441 25.1144C28.9441 20.1125 20.1214 5.95953 19.7462 5.35893ZM19.4999 33.8392C17.1517 33.8367 14.9001 32.9182 13.2382 31.2847C11.5764 29.6512 10.6396 27.4359 10.6329 25.1238C10.6329 20.7359 18.0451 8.43772 19.4999 6.06563C20.9546 8.43772 28.3668 20.7359 28.3668 25.1238C28.3602 27.4359 27.4234 29.6512 25.7615 31.2847C24.0996 32.9182 21.8481 33.8367 19.4999 33.8392Z" fill="#E30C5C"/>
<path d="M25.9287 23.7862C25.8521 23.7862 25.7787 23.8162 25.7246 23.8695C25.6705 23.9228 25.6401 23.9951 25.6401 24.0704C25.636 25.9073 24.8927 27.6677 23.573 28.966C22.2533 30.2643 20.4648 30.9948 18.5992 30.9973C18.5227 30.9973 18.4493 31.0272 18.3951 31.0805C18.341 31.1338 18.3106 31.2061 18.3106 31.2814C18.3106 31.3568 18.341 31.4291 18.3951 31.4824C18.4493 31.5357 18.5227 31.5656 18.5992 31.5656C20.6191 31.5636 22.5556 30.7727 23.9838 29.3665C25.412 27.9602 26.2153 26.0535 26.2173 24.0648C26.2158 23.9904 26.1847 23.9195 26.1308 23.8675C26.0768 23.8154 26.0043 23.7862 25.9287 23.7862Z" fill="#E30C5C"/>
<path fill-rule="evenodd" clip-rule="evenodd" d="M19.9365 5.23988C20.1251 5.54167 22.4278 9.23526 24.684 13.4807C25.812 15.6032 26.9304 17.8674 27.7674 19.9169C28.6006 21.957 29.1685 23.8156 29.1685 25.1143C29.1685 27.6412 28.149 30.0639 26.3354 31.8496C24.5219 33.6352 22.063 34.6377 19.4998 34.6377C16.9366 34.6377 14.4777 33.6352 12.6642 31.8496C10.8506 30.0639 9.83105 27.6412 9.83105 25.1143C9.83105 23.8156 10.399 21.957 11.2321 19.9169C12.0691 17.8674 13.1876 15.6032 14.3156 13.4807C16.5718 9.23526 18.8745 5.54167 19.0631 5.23988L19.064 5.2384C19.1107 5.16495 19.1753 5.10479 19.2515 5.06323C19.3277 5.02168 19.4131 5 19.4998 5C19.5865 5 19.6719 5.02168 19.7481 5.06323C19.8243 5.10479 19.8889 5.16496 19.9356 5.2384L19.9365 5.23988ZM18.5992 31.5656C18.5226 31.5656 18.4492 31.5356 18.3951 31.4823C18.3409 31.429 18.3105 31.3567 18.3105 31.2814C18.3105 31.206 18.3409 31.1337 18.3951 31.0804C18.4492 31.0271 18.5226 30.9972 18.5992 30.9972C20.4647 30.9947 22.2532 30.2643 23.5729 28.9659C24.8926 27.6676 25.6359 25.9072 25.64 24.0704C25.64 23.995 25.6704 23.9227 25.7245 23.8694C25.7786 23.8161 25.8521 23.7862 25.9286 23.7862C26.0042 23.7861 26.0767 23.8153 26.1307 23.8674C26.1847 23.9195 26.2157 23.9903 26.2172 24.0647C26.2152 26.0534 25.4119 27.9601 23.9837 29.3664C22.5555 30.7726 20.619 31.5636 18.5992 31.5656ZM25.9286 23.5616C26.0618 23.5616 26.1904 23.613 26.2866 23.7058C26.3829 23.7987 26.439 23.9258 26.4417 24.0601L26.4418 24.0625L26.4418 24.0649C26.4397 26.1142 25.6119 28.0783 24.1412 29.5264C22.6707 30.9743 20.6776 31.788 18.5994 31.7901C18.4644 31.7901 18.334 31.7373 18.2375 31.6423C18.1409 31.5472 18.086 31.4174 18.086 31.2814C18.086 31.1453 18.1409 31.0155 18.2375 30.9204C18.334 30.8255 18.464 30.7727 18.5989 30.7726C20.4061 30.7702 22.138 30.0626 23.4155 28.8059C24.6927 27.5493 25.4115 25.8462 25.4154 24.0699C25.4156 23.934 25.4705 23.8044 25.567 23.7094C25.6635 23.6144 25.7936 23.5616 25.9286 23.5616ZM19.2535 5.35884C19.2796 5.31774 19.3159 5.28384 19.359 5.26035C19.4021 5.23685 19.4505 5.22453 19.4998 5.22453C19.549 5.22453 19.5975 5.23685 19.6406 5.26035C19.6837 5.28384 19.72 5.31774 19.7461 5.35884C20.1213 5.95945 28.944 20.1124 28.944 25.1143C28.944 27.5805 27.949 29.9457 26.1778 31.6896C24.4067 33.4335 22.0045 34.4132 19.4998 34.4132C16.995 34.4132 14.5929 33.4335 12.8217 31.6896C11.0506 29.9457 10.0556 27.5805 10.0556 25.1143C10.0556 20.1124 18.8783 5.95945 19.2535 5.35884ZM13.3955 31.1245C15.0151 32.7163 17.2099 33.6121 19.4998 33.6146C21.7896 33.6121 23.9845 32.7163 25.604 31.1245C27.2234 29.5328 28.1356 27.3749 28.1422 25.1235C28.1421 24.0732 27.6943 22.5171 26.9772 20.7112C26.2635 18.914 25.2953 16.8987 24.2795 14.9421C22.4032 11.328 20.3713 7.92739 19.4998 6.49617C18.6283 7.92739 16.5964 11.328 14.7201 14.9421C13.7043 16.8987 12.7361 18.914 12.0224 20.7112C11.3053 22.517 10.8575 24.0732 10.8574 25.1234C10.8639 27.3749 11.7762 29.5328 13.3955 31.1245ZM10.6329 25.1238C10.6329 20.855 17.6476 9.10036 19.3682 6.28062C19.4163 6.20183 19.4602 6.13002 19.4998 6.06555C19.5393 6.13002 19.5833 6.20183 19.6313 6.28062C21.352 9.10035 28.3667 20.855 28.3667 25.1238C28.3601 27.4358 27.4233 29.6511 25.7614 31.2846C24.0995 32.9181 21.848 33.8366 19.4998 33.8391C17.1516 33.8366 14.9 32.9181 13.2382 31.2846C11.5763 29.6511 10.6395 27.4358 10.6329 25.1238Z" fill="#E30C5C"/>
</svg>
