<svg width="20" height="20" viewBox="0 0 20 20" fill="none" xmlns="http://www.w3.org/2000/svg">
<path fill-rule="evenodd" clip-rule="evenodd" d="M0 10C0 15.519 4.48 20 10 20C15.53 20 20 15.519 20 10C20 4.479 15.53 0 10 0C4.48 0 0 4.479 0 10ZM9.12 13.79C9.12 14.269 9.52 14.67 10 14.67C10.48 14.67 10.87 14.269 10.87 13.79V9.37C10.87 8.889 10.48 8.5 10 8.5C9.52 8.5 9.12 8.889 9.12 9.37V13.79ZM10.01 5.319C9.52 5.319 9.13 5.719 9.13 6.199C9.13 6.679 9.52 7.069 10 7.069C10.49 7.069 10.88 6.679 10.88 6.199C10.88 5.719 10.49 5.319 10.01 5.319Z" fill="#959595"/>
</svg>
