<svg width="17" height="17" viewBox="0 0 17 17" fill="none" xmlns="http://www.w3.org/2000/svg">
<path fill-rule="evenodd" clip-rule="evenodd" d="M16.6667 8.33333C16.6667 3.73417 12.9333 -3.26378e-07 8.33334 -7.28523e-07C3.72501 -1.1314e-06 7.30294e-06 3.73417 6.90087e-06 8.33333C6.49865e-06 12.9342 3.72501 16.6667 8.33334 16.6667C12.9333 16.6667 16.6667 12.9342 16.6667 8.33333ZM9.16667 4.87979C9.16667 4.49163 8.78572 4.16667 8.32858 4.16667C7.87143 4.16667 7.50001 4.49163 7.50001 4.87979L7.5 8.46164C7.5 8.85143 7.87143 9.16667 8.32858 9.16667C8.78572 9.16667 9.16667 8.85143 9.16667 8.46164L9.16667 4.87979ZM8.32857 12.5C8.79524 12.5 9.16667 12.119 9.16667 11.6619C9.16667 11.2048 8.79524 10.8333 8.3381 10.8333C7.87143 10.8333 7.5 11.2048 7.5 11.6619C7.5 12.119 7.87143 12.5 8.32857 12.5Z" fill="#FB9A40"/>
</svg>
