<svg width="43" height="43" viewBox="0 0 43 43" fill="none" xmlns="http://www.w3.org/2000/svg">
<path d="M0 8.5C0 5.18629 2.68629 2.5 6 2.5H34C37.3137 2.5 40 5.18629 40 8.5V36.5C40 39.8137 37.3137 42.5 34 42.5H6C2.68629 42.5 0 39.8137 0 36.5V8.5Z" fill="#F3F3F3"/>
<path d="M35.791 34.5146C35.8465 34.5146 35.8996 34.4926 35.9388 34.4535C35.978 34.4144 36 34.3613 36 34.3059C36 34.2506 35.978 34.1975 35.9388 34.1584C35.8996 34.1193 35.8465 34.0973 35.791 34.0973H20.2131V33.2084H35.791C35.8465 33.2084 35.8996 33.1864 35.9388 33.1473C35.978 33.1082 36 33.0551 36 32.9997C36 32.9444 35.978 32.8913 35.9388 32.8522C35.8996 32.8131 35.8465 32.7911 35.791 32.7911H20.2131V31.4473C21.1538 31.3927 22.0381 30.9815 22.6854 30.2976C23.3327 29.6138 23.694 28.7089 23.6956 27.768V12.1881H24.6582C24.7136 12.1881 24.7668 12.1661 24.8059 12.1269C24.8451 12.0878 24.8671 12.0347 24.8671 11.9794V10.7066C24.8671 10.6512 24.8451 10.5982 24.8059 10.559C24.7668 10.5199 24.7136 10.4979 24.6582 10.4979H21.3484V6.91732H23.1315C23.1869 6.91732 23.24 6.89534 23.2792 6.8562C23.3184 6.81707 23.3404 6.764 23.3404 6.70866C23.3404 6.65332 23.3184 6.60025 23.2792 6.56112C23.24 6.52198 23.1869 6.5 23.1315 6.5H16.8783C16.8229 6.5 16.7697 6.52198 16.7305 6.56112C16.6914 6.60025 16.6693 6.65332 16.6693 6.70866C16.6693 6.764 16.6914 6.81707 16.7305 6.8562C16.7697 6.89534 16.8229 6.91732 16.8783 6.91732H18.6613V10.4979H15.3404C15.285 10.4979 15.2319 10.5199 15.1927 10.559C15.1535 10.5982 15.1315 10.6512 15.1315 10.7066V11.971C15.1315 12.0264 15.1535 12.0795 15.1927 12.1186C15.2319 12.1577 15.285 12.1797 15.3404 12.1797H16.3155V13.8351C16.3093 13.8544 16.3061 13.8746 16.3058 13.8949C16.3061 13.9147 16.3093 13.9344 16.3155 13.9533V15.3889C16.3026 15.4277 16.3026 15.4697 16.3155 15.5085V16.9441C16.3026 16.9829 16.3026 17.0249 16.3155 17.0637V18.4993C16.3026 18.5381 16.3026 18.5801 16.3155 18.6189V27.7624C16.3175 28.7031 16.679 29.6076 17.3262 30.2912C17.9734 30.9747 18.8576 31.3858 19.798 31.4404V32.7911H4.20895C4.15353 32.7911 4.10039 32.8131 4.0612 32.8522C4.02201 32.8913 4 32.9444 4 32.9997C4 33.0551 4.02201 33.1082 4.0612 33.1473C4.10039 33.1864 4.15353 33.2084 4.20895 33.2084H19.7952V34.1042H4.20895C4.15353 34.1042 4.10039 34.1262 4.0612 34.1654C4.02201 34.2045 4 34.2576 4 34.3129C4 34.3682 4.02201 34.4213 4.0612 34.4604C4.10039 34.4996 4.15353 34.5216 4.20895 34.5216H19.7952V35.4188H4.20895C4.15353 35.4188 4.10039 35.4408 4.0612 35.4799C4.02201 35.519 4 35.5721 4 35.6275C4 35.6828 4.02201 35.7359 4.0612 35.775C4.10039 35.8141 4.15353 35.8361 4.20895 35.8361H19.7952V38.2913C19.7952 38.3467 19.8172 38.3998 19.8564 38.4389C19.8956 38.478 19.9488 38.5 20.0042 38.5C20.0596 38.5 20.1127 38.478 20.1519 38.4389C20.1911 38.3998 20.2131 38.3467 20.2131 38.2913V35.8292H35.791C35.8465 35.8292 35.8996 35.8072 35.9388 35.768C35.978 35.7289 36 35.6758 36 35.6205C36 35.5652 35.978 35.5121 35.9388 35.473C35.8996 35.4338 35.8465 35.4118 35.791 35.4118H20.2131V34.5146H35.791ZM20.9305 6.91732V10.4965H19.0792V6.91732H20.9305ZM15.5494 10.9152H24.4576V11.7624H15.5563L15.5494 10.9152ZM17.9175 18.3505H16.7251V17.2112H17.9175C17.9729 17.2112 18.026 17.1892 18.0652 17.1501C18.1044 17.1109 18.1264 17.0579 18.1264 17.0025C18.1264 16.9472 18.1044 16.8941 18.0652 16.855C18.026 16.8158 17.9729 16.7939 17.9175 16.7939H16.7251V15.6574H17.9175C17.9729 15.6574 18.026 15.6354 18.0652 15.5962C18.1044 15.5571 18.1264 15.504 18.1264 15.4487C18.1264 15.3934 18.1044 15.3403 18.0652 15.3012C18.026 15.262 17.9729 15.24 17.9175 15.24H16.7251V14.1035H17.9175C17.9729 14.1035 18.026 14.0816 18.0652 14.0424C18.1044 14.0033 18.1264 13.9502 18.1264 13.8949C18.1264 13.8395 18.1044 13.7865 18.0652 13.7473C18.026 13.7082 17.9729 13.6862 17.9175 13.6862H16.7251V12.1825H23.2722V23.4571H16.7251V18.7678H17.9175C17.9729 18.7678 18.026 18.7458 18.0652 18.7067C18.1044 18.6675 18.1264 18.6145 18.1264 18.5591C18.1264 18.5038 18.1044 18.4507 18.0652 18.4116C18.026 18.3724 17.9729 18.3505 17.9175 18.3505ZM16.7251 27.761V23.8744H23.2722V27.761C23.2473 28.6115 22.8915 29.4188 22.2803 30.0116C21.6691 30.6044 20.8506 30.936 19.9986 30.936C19.1466 30.936 18.3281 30.6044 17.7169 30.0116C17.1057 29.4188 16.7499 28.6115 16.7251 27.761Z" fill="#E30C5C"/>
<path fill-rule="evenodd" clip-rule="evenodd" d="M23.6954 27.7678C23.6938 28.7087 23.3325 29.6136 22.6852 30.2974C22.038 30.9813 21.1536 31.3925 20.2129 31.4471V32.7909H35.7909C35.8463 32.7909 35.8994 32.8129 35.9386 32.852C35.9778 32.8911 35.9998 32.9442 35.9998 32.9995C35.9998 33.0549 35.9778 33.108 35.9386 33.1471C35.8994 33.1862 35.8463 33.2082 35.7909 33.2082H20.2129V34.0971H35.7909C35.8463 34.0971 35.8994 34.1191 35.9386 34.1582C35.9778 34.1973 35.9998 34.2504 35.9998 34.3058C35.9998 34.3611 35.9778 34.4142 35.9386 34.4533C35.8994 34.4924 35.8463 34.5144 35.7909 34.5144H20.2129V35.4116H35.7909C35.8463 35.4116 35.8994 35.4336 35.9386 35.4728C35.9778 35.5119 35.9998 35.565 35.9998 35.6203C35.9998 35.6756 35.9778 35.7287 35.9386 35.7679C35.8994 35.807 35.8463 35.829 35.7909 35.829H20.2129V38.2911C20.2129 38.3465 20.1909 38.3996 20.1517 38.4387C20.1125 38.4778 20.0594 38.4998 20.004 38.4998C19.9486 38.4998 19.8954 38.4778 19.8562 38.4387C19.8171 38.3996 19.795 38.3465 19.795 38.2911V35.8359H4.20875C4.15334 35.8359 4.10019 35.8139 4.061 35.7748C4.02182 35.7357 3.9998 35.6826 3.9998 35.6273C3.9998 35.5719 4.02182 35.5189 4.061 35.4797C4.10019 35.4406 4.15334 35.4186 4.20875 35.4186H19.795V34.5214H4.20875C4.15334 34.5214 4.10019 34.4994 4.061 34.4603C4.02182 34.4211 3.9998 34.368 3.9998 34.3127C3.9998 34.2574 4.02182 34.2043 4.061 34.1652C4.10019 34.126 4.15334 34.104 4.20875 34.104H19.795V33.2082H4.20875C4.15334 33.2082 4.10019 33.1862 4.061 33.1471C4.02182 33.108 3.9998 33.0549 3.9998 32.9995C3.9998 32.9442 4.02182 32.8911 4.061 32.852C4.10019 32.8129 4.15334 32.7909 4.20875 32.7909H19.7978V31.4402C18.8574 31.3856 17.9732 30.9745 17.326 30.291C16.6788 29.6074 16.3173 28.7029 16.3153 27.7622V18.6187C16.3024 18.5799 16.3024 18.5379 16.3153 18.4991V17.0635C16.3024 17.0247 16.3024 16.9827 16.3153 16.9439V15.5083C16.3024 15.4695 16.3024 15.4275 16.3153 15.3887V13.9531C16.3091 13.9342 16.3059 13.9145 16.3056 13.8947C16.3059 13.8744 16.3092 13.8542 16.3153 13.8349V12.1795H15.3402C15.2848 12.1795 15.2317 12.1575 15.1925 12.1184C15.1533 12.0793 15.1313 12.0262 15.1313 11.9709V10.7064C15.1313 10.651 15.1533 10.598 15.1925 10.5588C15.2317 10.5197 15.2848 10.4977 15.3402 10.4977H18.6611V6.91712H16.8781C16.8227 6.91712 16.7695 6.89514 16.7303 6.85601C16.6912 6.81688 16.6691 6.7638 16.6691 6.70846C16.6691 6.65312 16.6912 6.60005 16.7303 6.56092C16.7695 6.52179 16.8227 6.4998 16.8781 6.4998H23.1313C23.1867 6.4998 23.2398 6.52179 23.279 6.56092C23.3182 6.60005 23.3402 6.65312 23.3402 6.70846C23.3402 6.7638 23.3182 6.81688 23.279 6.85601C23.2398 6.89514 23.1867 6.91712 23.1313 6.91712H21.3482V10.4977H24.658C24.7134 10.4977 24.7666 10.5197 24.8057 10.5588C24.8449 10.598 24.8669 10.651 24.8669 10.7064V11.9792C24.8669 12.0345 24.8449 12.0876 24.8057 12.1267C24.7666 12.1659 24.7134 12.1879 24.658 12.1879H23.6954V27.7678ZM23.8954 12.3879V27.7678C23.8937 28.7598 23.5128 29.714 22.8305 30.4349C22.1916 31.1099 21.3336 31.5329 20.4129 31.6313V32.5909H35.7909C35.8992 32.5909 36.0032 32.6339 36.0799 32.7105C36.1567 32.7871 36.1998 32.8911 36.1998 32.9995C36.1998 33.108 36.1567 33.212 36.0799 33.2886C36.0032 33.3652 35.8992 33.4082 35.7909 33.4082H20.4129V33.8971H35.7909C35.8992 33.8971 36.0032 33.9401 36.0799 34.0167C36.1567 34.0933 36.1998 34.1973 36.1998 34.3058C36.1998 34.4142 36.1567 34.5182 36.0799 34.5948C36.0032 34.6714 35.8992 34.7144 35.7909 34.7144H20.4129V35.2116H35.7909C35.8992 35.2116 36.0032 35.2546 36.0799 35.3312C36.1567 35.4079 36.1998 35.5118 36.1998 35.6203C36.1998 35.7288 36.1567 35.8328 36.0799 35.9094C36.0032 35.986 35.8992 36.029 35.7909 36.029H20.4129V38.2911C20.4129 38.3996 20.3698 38.5036 20.2931 38.5802C20.2163 38.6568 20.1124 38.6998 20.004 38.6998C19.8956 38.6998 19.7916 38.6568 19.7149 38.5802C19.6382 38.5036 19.595 38.3996 19.595 38.2911V36.0359H4.20875C4.10038 36.0359 3.9964 35.9929 3.91968 35.9163C3.84296 35.8397 3.7998 35.7357 3.7998 35.6273C3.7998 35.5188 3.84296 35.4148 3.91968 35.3382C3.99639 35.2616 4.10038 35.2186 4.20875 35.2186H19.595V34.7214H4.20875C4.10038 34.7214 3.99639 34.6784 3.91968 34.6018C3.84296 34.5252 3.7998 34.4212 3.7998 34.3127C3.7998 34.2042 3.84296 34.1003 3.91968 34.0236C3.9964 33.947 4.10039 33.904 4.20875 33.904H19.595V33.4082H4.20875C4.10038 33.4082 3.9964 33.3652 3.91968 33.2886C3.84296 33.212 3.7998 33.108 3.7998 32.9995C3.7998 32.8911 3.84296 32.7871 3.91968 32.7105C3.9964 32.6339 4.10038 32.5909 4.20875 32.5909H19.5978V31.6243C18.6774 31.526 17.8196 31.1032 17.1808 30.4285C16.4985 29.7079 16.1174 28.7544 16.1153 27.7626V18.6453C16.1024 18.5885 16.1024 18.5294 16.1153 18.4725V17.0901C16.1024 17.0333 16.1024 16.9742 16.1153 16.9173V15.5349C16.1024 15.478 16.1024 15.419 16.1153 15.3621V13.9794C16.1093 13.9526 16.106 13.9252 16.1056 13.8976L16.1055 13.8918C16.1059 13.8639 16.1093 13.8362 16.1153 13.8091V12.3795H15.3402C15.2318 12.3795 15.1279 12.3365 15.0511 12.2599C14.9744 12.1833 14.9313 12.0793 14.9313 11.9709V10.7064C14.9313 10.5979 14.9744 10.4939 15.0511 10.4173C15.1279 10.3407 15.2318 10.2977 15.3402 10.2977H18.4611V7.11712H16.8781C16.7697 7.11712 16.6657 7.07414 16.589 6.99753C16.5123 6.92091 16.4691 6.81694 16.4691 6.70846C16.4691 6.59999 16.5123 6.49602 16.589 6.4194C16.6657 6.34279 16.7697 6.2998 16.8781 6.2998H23.1313C23.2396 6.2998 23.3436 6.34279 23.4203 6.4194C23.4971 6.49602 23.5402 6.59999 23.5402 6.70846C23.5402 6.81693 23.4971 6.92091 23.4203 6.99753C23.3436 7.07414 23.2396 7.11712 23.1313 7.11712H21.5482V10.2977H24.658C24.7664 10.2977 24.8704 10.3407 24.9471 10.4173C25.0238 10.4939 25.0669 10.5979 25.0669 10.7064V11.9792C25.0669 12.0877 25.0238 12.1916 24.9471 12.2683C24.8704 12.3449 24.7664 12.3879 24.658 12.3879H23.8954ZM20.7303 10.2963V7.11712H19.279V10.2963H20.7303ZM15.5492 10.915H24.4574V11.7622H15.5561L15.5492 10.915ZM15.7545 11.5622H24.2574V11.115H15.7508L15.7545 11.5622ZM16.9249 18.1503H17.9173C18.0256 18.1503 18.1296 18.1933 18.2063 18.2699C18.2831 18.3465 18.3262 18.4504 18.3262 18.5589C18.3262 18.6674 18.2831 18.7714 18.2063 18.848C18.1296 18.9246 18.0256 18.9676 17.9173 18.9676H16.9249V23.2569H23.072V12.3823H16.9249V13.486H17.9173C18.0256 13.486 18.1296 13.529 18.2063 13.6056C18.2831 13.6822 18.3262 13.7862 18.3262 13.8947C18.3262 14.0032 18.2831 14.1071 18.2063 14.1838C18.1296 14.2604 18.0256 14.3034 17.9173 14.3034H16.9249V15.0399H17.9173C18.0256 15.0399 18.1296 15.0828 18.2063 15.1594C18.2831 15.2361 18.3262 15.34 18.3262 15.4485C18.3262 15.557 18.2831 15.661 18.2063 15.7376C18.1296 15.8142 18.0256 15.8572 17.9173 15.8572H16.9249V16.5937H17.9173C18.0256 16.5937 18.1296 16.6367 18.2063 16.7133C18.2831 16.7899 18.3262 16.8939 18.3262 17.0023C18.3262 17.1108 18.2831 17.2148 18.2063 17.2914C18.1296 17.368 18.0256 17.411 17.9173 17.411H16.9249V18.1503ZM16.9249 27.7578C16.9489 28.5552 17.2828 29.3119 17.8559 29.8679C18.4298 30.4244 19.1983 30.7358 19.9984 30.7358C20.7985 30.7358 21.567 30.4244 22.1409 29.8679C22.714 29.312 23.0479 28.5552 23.072 27.7579V24.0742H16.9249V27.7578ZM23.272 27.7608C23.2471 28.6113 22.8913 29.4186 22.2801 30.0114C21.6689 30.6042 20.8504 30.9358 19.9984 30.9358C19.1464 30.9358 18.3279 30.6042 17.7167 30.0114C17.1055 29.4186 16.7497 28.6113 16.7249 27.7608V23.8742H23.272V27.7608ZM20.9303 6.91712H19.079V10.4963H20.9303V6.91712ZM17.9173 18.3503C17.9727 18.3503 18.0258 18.3722 18.065 18.4114C18.1042 18.4505 18.1262 18.5036 18.1262 18.5589C18.1262 18.6143 18.1042 18.6673 18.065 18.7065C18.0258 18.7456 17.9727 18.7676 17.9173 18.7676H16.7249V23.4569H23.272V12.1823H16.7249V13.686H17.9173C17.9727 13.686 18.0258 13.708 18.065 13.7471C18.1042 13.7863 18.1262 13.8394 18.1262 13.8947C18.1262 13.95 18.1042 14.0031 18.065 14.0422C18.0258 14.0814 17.9727 14.1034 17.9173 14.1034H16.7249V15.2399H17.9173C17.9727 15.2399 18.0258 15.2618 18.065 15.301C18.1042 15.3401 18.1262 15.3932 18.1262 15.4485C18.1262 15.5038 18.1042 15.5569 18.065 15.5961C18.0258 15.6352 17.9727 15.6572 17.9173 15.6572H16.7249V16.7937H17.9173C17.9727 16.7937 18.0258 16.8156 18.065 16.8548C18.1042 16.8939 18.1262 16.947 18.1262 17.0023C18.1262 17.0577 18.1042 17.1107 18.065 17.1499C18.0258 17.189 17.9727 17.211 17.9173 17.211H16.7249V18.3503H17.9173Z" fill="#E30C5C"/>
</svg>
