<svg width="12" height="12" viewBox="0 0 12 12" fill="none" xmlns="http://www.w3.org/2000/svg">
<g clip-path="url(#clip0_34_188)">
<path d="M3.17148 8.82851L2.46448 9.53551M3.17148 3.17149L2.46448 2.46449M8.82849 3.17149L9.53549 2.46449M8.82849 8.82851L9.53549 9.53551M2 6H1M6 2V1M10 6H11M6 10V11M7.41402 7.41399C7.60504 7.2295 7.75741 7.00881 7.86222 6.7648C7.96704 6.5208 8.02221 6.25836 8.02452 5.9928C8.02683 5.72724 7.97623 5.46388 7.87566 5.21809C7.7751 4.97229 7.6266 4.74899 7.43881 4.5612C7.25102 4.37342 7.02772 4.22491 6.78193 4.12435C6.53614 4.02379 6.27278 3.97319 6.00722 3.97549C5.74166 3.9778 5.47922 4.03297 5.23521 4.13779C4.9912 4.24261 4.77051 4.39497 4.58602 4.58599C4.2217 4.9632 4.02012 5.4684 4.02467 5.9928C4.02923 6.51719 4.23957 7.01882 4.61038 7.38963C4.9812 7.76045 5.48282 7.97079 6.00722 7.97534C6.53161 7.9799 7.03682 7.77831 7.41402 7.41399Z" stroke="#323335" stroke-linecap="round" stroke-linejoin="round"/>
</g>
<defs>
<clipPath id="clip0_34_188">
<rect width="12" height="12" fill="white"/>
</clipPath>
</defs>
</svg>
